EBGaramondVF-SerifRIseMax.ufo
<glyph name="dollar" format="1">
  <advance width="443"/>
  <unicode hex="0024"/>
  <outline>
    <contour>
      <point x="173" y="-82" type="curve" smooth="yes"/>
      <point x="184" y="-82"/>
      <point x="197" y="-78"/>
      <point x="198" y="-67" type="curve" smooth="yes"/>
      <point x="207" y="9" type="line" smooth="yes"/>
      <point x="208" y="14"/>
      <point x="211" y="16"/>
      <point x="216" y="16" type="curve" smooth="yes"/>
      <point x="328" y="23"/>
      <point x="400" y="93"/>
      <point x="400" y="194" type="curve" smooth="yes"/>
      <point x="400" y="284"/>
      <point x="331" y="329"/>
      <point x="265" y="367" type="curve"/>
      <point x="251" y="377"/>
      <point x="252" y="377"/>
      <point x="253" y="385" type="curve" smooth="yes"/>
      <point x="276" y="575" type="line"/>
      <point x="276" y="577"/>
      <point x="278" y="580"/>
      <point x="280" y="580" type="curve" smooth="yes"/>
      <point x="297" y="580"/>
      <point x="327" y="546"/>
      <point x="344" y="501" type="curve" smooth="yes"/>
      <point x="351" y="483"/>
      <point x="364" y="469"/>
      <point x="378" y="469" type="curve" smooth="yes"/>
      <point x="386" y="469"/>
      <point x="394" y="474"/>
      <point x="394" y="496" type="curve" smooth="yes"/>
      <point x="394" y="527"/>
      <point x="382" y="562"/>
      <point x="375" y="588" type="curve" smooth="yes"/>
      <point x="372" y="597"/>
      <point x="365" y="607"/>
      <point x="355" y="610" type="curve" smooth="yes"/>
      <point x="340" y="616"/>
      <point x="319" y="625"/>
      <point x="292" y="630" type="curve" smooth="yes"/>
      <point x="287" y="631"/>
      <point x="286" y="634"/>
      <point x="286" y="637" type="curve" smooth="yes"/>
      <point x="287" y="646"/>
      <point x="292" y="687"/>
      <point x="293" y="697" type="curve"/>
      <point x="293" y="704"/>
      <point x="287" y="712"/>
      <point x="280" y="712" type="curve" smooth="yes"/>
      <point x="267" y="712"/>
      <point x="253" y="708"/>
      <point x="251" y="695" type="curve" smooth="yes"/>
      <point x="244" y="638" type="line" smooth="yes"/>
      <point x="244" y="635"/>
      <point x="240" y="632"/>
      <point x="234" y="632" type="curve" smooth="yes"/>
      <point x="117" y="625"/>
      <point x="58" y="552"/>
      <point x="58" y="466" type="curve" smooth="yes"/>
      <point x="58" y="390"/>
      <point x="122" y="346"/>
      <point x="187" y="308" type="curve" smooth="yes"/>
      <point x="199" y="301"/>
      <point x="200" y="296"/>
      <point x="199" y="291" type="curve" smooth="yes"/>
      <point x="172" y="62" type="line" smooth="yes"/>
      <point x="172" y="58"/>
      <point x="167" y="58"/>
      <point x="163" y="60" type="curve"/>
      <point x="126" y="75"/>
      <point x="113" y="106"/>
      <point x="87" y="182" type="curve" smooth="yes"/>
      <point x="83" y="193"/>
      <point x="72" y="200"/>
      <point x="64" y="200" type="curve" smooth="yes"/>
      <point x="52" y="200"/>
      <point x="42" y="195"/>
      <point x="42" y="184" type="curve"/>
      <point x="44" y="149"/>
      <point x="44" y="104"/>
      <point x="51" y="79" type="curve" smooth="yes"/>
      <point x="53" y="72"/>
      <point x="59" y="66"/>
      <point x="63" y="61" type="curve" smooth="yes"/>
      <point x="90" y="40"/>
      <point x="123" y="24"/>
      <point x="160" y="18" type="curve" smooth="yes"/>
      <point x="163" y="18"/>
      <point x="168" y="15"/>
      <point x="167" y="9" type="curve"/>
      <point x="158" y="-62" type="line" smooth="yes"/>
      <point x="156" y="-75"/>
      <point x="165" y="-82"/>
    </contour>
    <contour>
      <point x="221" y="53" type="curve"/>
      <point x="215" y="53"/>
      <point x="213" y="55"/>
      <point x="213" y="63" type="curve"/>
      <point x="238" y="269" type="line" smooth="yes"/>
      <point x="238" y="273"/>
      <point x="241" y="276"/>
      <point x="245" y="274" type="curve"/>
      <point x="292" y="245"/>
      <point x="321" y="219"/>
      <point x="321" y="158" type="curve" smooth="yes"/>
      <point x="321" y="95"/>
      <point x="280" y="57"/>
    </contour>
    <contour>
      <point x="205" y="404" type="curve"/>
      <point x="164" y="432"/>
      <point x="136" y="460"/>
      <point x="136" y="497" type="curve" smooth="yes"/>
      <point x="136" y="567"/>
      <point x="177" y="591"/>
      <point x="229" y="595" type="curve"/>
      <point x="234" y="595"/>
      <point x="236" y="592"/>
      <point x="236" y="587" type="curve"/>
      <point x="214" y="405" type="line"/>
      <point x="214" y="403"/>
      <point x="213" y="400"/>
    </contour>
  </outline>
</glyph>
<glyph name="four" format="1">
  <advance width="480"/>
  <unicode hex="0034"/>
  <outline>
    <contour>
      <point x="224" y="-5" type="curve" smooth="yes"/>
      <point x="278" y="-5"/>
      <point x="291" y="0"/>
      <point x="334" y="0" type="curve" smooth="yes"/>
      <point x="380" y="0"/>
      <point x="397" y="-5"/>
      <point x="451" y="-5" type="curve" smooth="yes"/>
      <point x="468" y="-5"/>
      <point x="480" y="0"/>
      <point x="480" y="8" type="curve" smooth="yes"/>
      <point x="480" y="21"/>
      <point x="469" y="21"/>
      <point x="448" y="31" type="curve" smooth="yes"/>
      <point x="402" y="53"/>
      <point x="368" y="84"/>
      <point x="368" y="130" type="curve" smooth="yes"/>
      <point x="368" y="178" type="line" smooth="yes"/>
      <point x="368" y="179"/>
      <point x="376" y="183"/>
      <point x="381" y="184" type="curve"/>
      <point x="389" y="185"/>
      <point x="400" y="186"/>
      <point x="412" y="186" type="curve" smooth="yes"/>
      <point x="428" y="186"/>
      <point x="446" y="185"/>
      <point x="461" y="185" type="curve" smooth="yes"/>
      <point x="465" y="185"/>
      <point x="482" y="207"/>
      <point x="482" y="223" type="curve" smooth="yes"/>
      <point x="482" y="227"/>
      <point x="477" y="231"/>
      <point x="471" y="231" type="curve"/>
      <point x="449" y="230"/>
      <point x="431" y="229"/>
      <point x="412" y="229" type="curve" smooth="yes"/>
      <point x="400" y="229"/>
      <point x="387" y="229"/>
      <point x="372" y="230" type="curve"/>
      <point x="369" y="230"/>
      <point x="367" y="233"/>
      <point x="367" y="236" type="curve" smooth="yes"/>
      <point x="367" y="365" type="line" smooth="yes"/>
      <point x="367" y="407"/>
      <point x="367" y="429"/>
      <point x="352" y="429" type="curve" smooth="yes"/>
      <point x="343" y="429"/>
      <point x="316" y="427"/>
      <point x="296" y="416" type="curve"/>
      <point x="288" y="412"/>
      <point x="287" y="408"/>
      <point x="287" y="394" type="curve" smooth="yes"/>
      <point x="287" y="239" type="line" smooth="yes"/>
      <point x="287" y="235"/>
      <point x="280" y="231"/>
      <point x="275" y="231" type="curve" smooth="yes"/>
      <point x="102" y="231" type="line" smooth="yes"/>
      <point x="98" y="231"/>
      <point x="100" y="237"/>
      <point x="102" y="240" type="curve" smooth="yes"/>
      <point x="372" y="628" type="line"/>
      <point x="372" y="628"/>
      <point x="380" y="642"/>
      <point x="374" y="642" type="curve" smooth="yes"/>
      <point x="353" y="642" type="line" smooth="yes"/>
      <point x="343" y="642"/>
      <point x="331" y="626"/>
      <point x="323" y="614" type="curve" smooth="yes"/>
      <point x="59" y="235" type="line" smooth="yes"/>
      <point x="46" y="217"/>
      <point x="45" y="219"/>
      <point x="20" y="188" type="curve"/>
      <point x="19" y="187"/>
      <point x="19" y="186"/>
      <point x="19" y="185" type="curve" smooth="yes"/>
      <point x="19" y="181"/>
      <point x="24" y="175"/>
      <point x="29" y="175" type="curve" smooth="yes"/>
      <point x="134" y="176"/>
      <point x="190" y="182"/>
      <point x="272" y="182" type="curve" smooth="yes"/>
      <point x="273" y="182"/>
      <point x="287" y="179"/>
      <point x="287" y="173" type="curve" smooth="yes"/>
      <point x="287" y="122" type="line" smooth="yes"/>
      <point x="287" y="70"/>
      <point x="277" y="54"/>
      <point x="227" y="31" type="curve" smooth="yes"/>
      <point x="205" y="21"/>
      <point x="195" y="21"/>
      <point x="195" y="8" type="curve" smooth="yes"/>
      <point x="195" y="0"/>
      <point x="207" y="-5"/>
    </contour>
  </outline>
</glyph>
<glyph name="D" format="1">
  <advance width="754"/>
  <unicode hex="0044"/>
  <outline>
    <contour>
      <point x="371" y="-7" type="curve" smooth="yes"/>
      <point x="562" y="-7"/>
      <point x="719" y="150"/>
      <point x="719" y="342" type="curve" smooth="yes"/>
      <point x="719" y="517"/>
      <point x="611" y="659"/>
      <point x="340" y="659" type="curve" smooth="yes"/>
      <point x="313" y="659"/>
      <point x="212" y="651"/>
      <point x="169" y="651" type="curve" smooth="yes"/>
      <point x="121" y="651"/>
      <point x="109" y="653"/>
      <point x="58" y="653" type="curve" smooth="yes"/>
      <point x="41" y="653"/>
      <point x="29" y="649"/>
      <point x="29" y="640" type="curve" smooth="yes"/>
      <point x="29" y="622"/>
      <point x="39" y="618"/>
      <point x="62" y="611" type="curve" smooth="yes"/>
      <point x="112" y="597"/>
      <point x="129" y="571"/>
      <point x="129" y="493" type="curve" smooth="yes"/>
      <point x="129" y="162" type="line" smooth="yes"/>
      <point x="129" y="81"/>
      <point x="112" y="50"/>
      <point x="62" y="35" type="curve" smooth="yes"/>
      <point x="39" y="28"/>
      <point x="29" y="27"/>
      <point x="29" y="8" type="curve" smooth="yes"/>
      <point x="29" y="-2"/>
      <point x="41" y="-5"/>
      <point x="58" y="-5" type="curve" smooth="yes"/>
      <point x="111" y="-5"/>
      <point x="123" y="0"/>
      <point x="163" y="0" type="curve" smooth="yes"/>
      <point x="242" y="0"/>
      <point x="351" y="-7"/>
    </contour>
    <contour>
      <point x="359" y="28" type="curve" smooth="yes"/>
      <point x="284" y="28"/>
      <point x="209" y="47"/>
      <point x="209" y="175" type="curve" smooth="yes"/>
      <point x="209" y="502" type="line" smooth="yes"/>
      <point x="209" y="626"/>
      <point x="258" y="628"/>
      <point x="345" y="628" type="curve" smooth="yes"/>
      <point x="482" y="628"/>
      <point x="624" y="517"/>
      <point x="624" y="325" type="curve" smooth="yes"/>
      <point x="624" y="151"/>
      <point x="515" y="28"/>
    </contour>
  </outline>
</glyph>
<glyph name="E" format="1">
  <advance width="564"/>
  <unicode hex="0045"/>
  <outline>
    <contour>
      <point x="66" y="-5" type="curve" smooth="yes"/>
      <point x="120" y="-5"/>
      <point x="136" y="1"/>
      <point x="181" y="1" type="curve" smooth="yes"/>
      <point x="281" y="1"/>
      <point x="366" y="-5"/>
      <point x="494" y="-5" type="curve" smooth="yes"/>
      <point x="502" y="-5"/>
      <point x="504" y="3"/>
      <point x="508" y="12" type="curve" smooth="yes"/>
      <point x="520" y="39"/>
      <point x="539" y="110"/>
      <point x="539" y="128" type="curve" smooth="yes"/>
      <point x="539" y="136"/>
      <point x="534" y="141"/>
      <point x="526" y="142" type="curve" smooth="yes"/>
      <point x="517" y="143"/>
      <point x="510" y="138"/>
      <point x="504" y="129" type="curve" smooth="yes"/>
      <point x="488" y="103"/>
      <point x="471" y="81"/>
      <point x="444" y="64" type="curve" smooth="yes"/>
      <point x="415" y="46"/>
      <point x="381" y="35"/>
      <point x="346" y="35" type="curve" smooth="yes"/>
      <point x="305" y="35" type="line" smooth="yes"/>
      <point x="257" y="35"/>
      <point x="224" y="86"/>
      <point x="224" y="123" type="curve" smooth="yes"/>
      <point x="224" y="294" type="line" smooth="yes"/>
      <point x="224" y="317"/>
      <point x="235" y="320"/>
      <point x="258" y="320" type="curve" smooth="yes"/>
      <point x="297" y="320" type="line" smooth="yes"/>
      <point x="339" y="320"/>
      <point x="360" y="308"/>
      <point x="386" y="275" type="curve" smooth="yes"/>
      <point x="400" y="258"/>
      <point x="405" y="243"/>
      <point x="419" y="243" type="curve" smooth="yes"/>
      <point x="428" y="243"/>
      <point x="429" y="251"/>
      <point x="429" y="260" type="curve" smooth="yes"/>
      <point x="429" y="268"/>
      <point x="427" y="317"/>
      <point x="427" y="337" type="curve" smooth="yes"/>
      <point x="427" y="353"/>
      <point x="430" y="398"/>
      <point x="430" y="407" type="curve" smooth="yes"/>
      <point x="430" y="417"/>
      <point x="422" y="423"/>
      <point x="415" y="423" type="curve" smooth="yes"/>
      <point x="403" y="423"/>
      <point x="399" y="413"/>
      <point x="389" y="401" type="curve" smooth="yes"/>
      <point x="359" y="363"/>
      <point x="342" y="352"/>
      <point x="281" y="352" type="curve" smooth="yes"/>
      <point x="242" y="352" type="line" smooth="yes"/>
      <point x="232" y="352"/>
      <point x="224" y="362"/>
      <point x="224" y="374" type="curve" smooth="yes"/>
      <point x="224" y="517" type="line" smooth="yes"/>
      <point x="224" y="590"/>
      <point x="257" y="618"/>
      <point x="297" y="618" type="curve" smooth="yes"/>
      <point x="341" y="618" type="line" smooth="yes"/>
      <point x="372" y="618"/>
      <point x="401" y="608"/>
      <point x="425" y="593" type="curve" smooth="yes"/>
      <point x="448" y="578"/>
      <point x="461" y="558"/>
      <point x="468" y="544" type="curve" smooth="yes"/>
      <point x="476" y="528"/>
      <point x="479" y="526"/>
      <point x="488" y="526" type="curve" smooth="yes"/>
      <point x="495" y="526"/>
      <point x="505" y="529"/>
      <point x="505" y="541" type="curve" smooth="yes"/>
      <point x="505" y="568"/>
      <point x="497" y="606"/>
      <point x="490" y="644" type="curve"/>
      <point x="489" y="651"/>
      <point x="479" y="653"/>
      <point x="472" y="653" type="curve" smooth="yes"/>
      <point x="467" y="653"/>
      <point x="432" y="652"/>
      <point x="387" y="651" type="curve" smooth="yes"/>
      <point x="345" y="651"/>
      <point x="294" y="650"/>
      <point x="250" y="650" type="curve" smooth="yes"/>
      <point x="180" y="650"/>
      <point x="148" y="653"/>
      <point x="73" y="653" type="curve" smooth="yes"/>
      <point x="56" y="653"/>
      <point x="44" y="650"/>
      <point x="44" y="642" type="curve" smooth="yes"/>
      <point x="44" y="631"/>
      <point x="54" y="623"/>
      <point x="77" y="618" type="curve" smooth="yes"/>
      <point x="127" y="604"/>
      <point x="144" y="581"/>
      <point x="144" y="508" type="curve" smooth="yes"/>
      <point x="144" y="128" type="line" smooth="yes"/>
      <point x="144" y="65"/>
      <point x="123" y="48"/>
      <point x="73" y="31" type="curve" smooth="yes"/>
      <point x="51" y="24"/>
      <point x="37" y="18"/>
      <point x="37" y="8" type="curve" smooth="yes"/>
      <point x="37" y="-2"/>
      <point x="49" y="-5"/>
    </contour>
  </outline>
</glyph>
<glyph name="F" format="1">
  <advance width="519"/>
  <unicode hex="0046"/>
  <outline>
    <contour>
      <point x="66" y="-5" type="curve" smooth="yes"/>
      <point x="120" y="-5"/>
      <point x="143" y="2"/>
      <point x="192" y="2" type="curve" smooth="yes"/>
      <point x="230" y="2"/>
      <point x="236" y="-5"/>
      <point x="290" y="-5" type="curve" smooth="yes"/>
      <point x="307" y="-5"/>
      <point x="319" y="-1"/>
      <point x="319" y="10" type="curve" smooth="yes"/>
      <point x="319" y="23"/>
      <point x="309" y="30"/>
      <point x="286" y="35" type="curve" smooth="yes"/>
      <point x="236" y="48"/>
      <point x="222" y="82"/>
      <point x="220" y="142" type="curve" smooth="yes"/>
      <point x="217" y="167"/>
      <point x="217" y="231"/>
      <point x="217" y="292" type="curve" smooth="yes"/>
      <point x="217" y="309"/>
      <point x="228" y="316"/>
      <point x="241" y="317" type="curve" smooth="yes"/>
      <point x="262" y="319"/>
      <point x="279" y="319"/>
      <point x="294" y="319" type="curve" smooth="yes"/>
      <point x="302" y="319"/>
      <point x="339" y="318"/>
      <point x="312" y="318" type="curve" smooth="yes"/>
      <point x="337" y="318"/>
      <point x="369" y="309"/>
      <point x="381" y="285" type="curve" smooth="yes"/>
      <point x="388" y="271"/>
      <point x="400" y="255"/>
      <point x="421" y="255" type="curve" smooth="yes"/>
      <point x="433" y="255"/>
      <point x="434" y="268"/>
      <point x="434" y="277" type="curve" smooth="yes"/>
      <point x="433" y="306"/>
      <point x="432" y="320"/>
      <point x="432" y="340" type="curve" smooth="yes"/>
      <point x="432" y="356"/>
      <point x="433" y="372"/>
      <point x="434" y="395" type="curve" smooth="yes"/>
      <point x="436" y="404"/>
      <point x="429" y="416"/>
      <point x="414" y="416" type="curve" smooth="yes"/>
      <point x="402" y="416"/>
      <point x="390" y="399"/>
      <point x="386" y="394" type="curve" smooth="yes"/>
      <point x="371" y="371"/>
      <point x="337" y="353"/>
      <point x="292" y="353" type="curve" smooth="yes"/>
      <point x="319" y="353"/>
      <point x="269" y="350"/>
      <point x="227" y="350" type="curve" smooth="yes"/>
      <point x="218" y="350"/>
      <point x="217" y="361"/>
      <point x="217" y="372" type="curve"/>
      <point x="216" y="396"/>
      <point x="216" y="433"/>
      <point x="216" y="467" type="curve" smooth="yes"/>
      <point x="216" y="502"/>
      <point x="216" y="542"/>
      <point x="217" y="521" type="curve" smooth="yes"/>
      <point x="219" y="571"/>
      <point x="239" y="617"/>
      <point x="298" y="617" type="curve" smooth="yes"/>
      <point x="324" y="617" type="line" smooth="yes"/>
      <point x="361" y="617"/>
      <point x="395" y="611"/>
      <point x="423" y="590" type="curve" smooth="yes"/>
      <point x="436" y="580"/>
      <point x="447" y="563"/>
      <point x="460" y="541" type="curve" smooth="yes"/>
      <point x="464" y="534"/>
      <point x="468" y="529"/>
      <point x="479" y="529" type="curve" smooth="yes"/>
      <point x="488" y="529"/>
      <point x="492" y="538"/>
      <point x="492" y="550" type="curve" smooth="yes"/>
      <point x="492" y="564"/>
      <point x="490" y="628"/>
      <point x="487" y="651" type="curve" smooth="yes"/>
      <point x="486" y="658"/>
      <point x="476" y="660"/>
      <point x="469" y="660" type="curve" smooth="yes"/>
      <point x="445" y="660"/>
      <point x="413" y="650"/>
      <point x="370" y="650" type="curve"/>
      <point x="329" y="650"/>
      <point x="283" y="650"/>
      <point x="244" y="650" type="curve" smooth="yes"/>
      <point x="175" y="650"/>
      <point x="145" y="653"/>
      <point x="72" y="653" type="curve" smooth="yes"/>
      <point x="55" y="653"/>
      <point x="43" y="649"/>
      <point x="43" y="640" type="curve" smooth="yes"/>
      <point x="43" y="629"/>
      <point x="53" y="620"/>
      <point x="76" y="615" type="curve" smooth="yes"/>
      <point x="126" y="604"/>
      <point x="137" y="567"/>
      <point x="137" y="494" type="curve" smooth="yes"/>
      <point x="137" y="131" type="line" smooth="yes"/>
      <point x="137" y="76"/>
      <point x="115" y="41"/>
      <point x="70" y="31" type="curve" smooth="yes"/>
      <point x="47" y="26"/>
      <point x="37" y="20"/>
      <point x="37" y="9" type="curve" smooth="yes"/>
      <point x="37" y="-1"/>
      <point x="49" y="-5"/>
    </contour>
  </outline>
</glyph>
<glyph name="G" format="1">
  <advance width="729"/>
  <unicode hex="0047"/>
  <outline>
    <contour>
      <point x="392" y="-14" type="curve" smooth="yes"/>
      <point x="519" y="-14"/>
      <point x="610" y="50"/>
      <point x="630" y="53" type="curve" smooth="yes"/>
      <point x="644" y="55"/>
      <point x="644" y="67"/>
      <point x="644" y="72" type="curve" smooth="yes"/>
      <point x="644" y="77"/>
      <point x="635" y="82"/>
      <point x="631" y="89" type="curve"/>
      <point x="628" y="95"/>
      <point x="625" y="98"/>
      <point x="625" y="105" type="curve" smooth="yes"/>
      <point x="625" y="132" type="line" smooth="yes"/>
      <point x="625" y="157"/>
      <point x="627" y="178"/>
      <point x="629" y="195" type="curve" smooth="yes"/>
      <point x="632" y="226"/>
      <point x="643" y="242"/>
      <point x="672" y="251" type="curve" smooth="yes"/>
      <point x="687" y="254"/>
      <point x="693" y="262"/>
      <point x="693" y="272" type="curve" smooth="yes"/>
      <point x="693" y="287"/>
      <point x="677" y="290"/>
      <point x="672" y="290" type="curve" smooth="yes"/>
      <point x="636" y="290"/>
      <point x="618" y="286"/>
      <point x="583" y="286" type="curve" smooth="yes"/>
      <point x="528" y="285"/>
      <point x="506" y="290"/>
      <point x="457" y="290" type="curve" smooth="yes"/>
      <point x="452" y="290"/>
      <point x="436" y="278"/>
      <point x="436" y="265" type="curve" smooth="yes"/>
      <point x="436" y="252"/>
      <point x="452" y="242"/>
      <point x="465" y="242" type="curve" smooth="yes"/>
      <point x="490" y="242"/>
      <point x="538" y="229"/>
      <point x="554" y="203" type="curve" smooth="yes"/>
      <point x="558" y="196"/>
      <point x="560" y="189"/>
      <point x="560" y="171" type="curve" smooth="yes"/>
      <point x="560" y="165"/>
      <point x="560" y="154"/>
      <point x="560" y="137" type="curve" smooth="yes"/>
      <point x="560" y="102"/>
      <point x="543" y="75"/>
      <point x="528" y="60" type="curve" smooth="yes"/>
      <point x="516" y="48"/>
      <point x="483" y="23"/>
      <point x="406" y="23" type="curve" smooth="yes"/>
      <point x="273" y="23"/>
      <point x="144" y="134"/>
      <point x="144" y="324" type="curve" smooth="yes"/>
      <point x="144" y="482"/>
      <point x="249" y="625"/>
      <point x="404" y="625" type="curve" smooth="yes"/>
      <point x="494" y="625"/>
      <point x="542" y="578"/>
      <point x="554" y="558" type="curve" smooth="yes"/>
      <point x="569" y="534"/>
      <point x="576" y="518"/>
      <point x="581" y="501" type="curve" smooth="yes"/>
      <point x="587" y="482"/>
      <point x="594" y="458"/>
      <point x="611" y="458" type="curve" smooth="yes"/>
      <point x="621" y="458"/>
      <point x="633" y="473"/>
      <point x="633" y="490" type="curve" smooth="yes"/>
      <point x="633" y="521"/>
      <point x="628" y="570"/>
      <point x="622" y="617" type="curve" smooth="yes"/>
      <point x="621" y="625"/>
      <point x="619" y="627"/>
      <point x="613" y="630" type="curve" smooth="yes"/>
      <point x="586" y="643"/>
      <point x="459" y="663"/>
      <point x="413" y="663" type="curve" smooth="yes"/>
      <point x="214" y="663"/>
      <point x="45" y="509"/>
      <point x="45" y="311" type="curve" smooth="yes"/>
      <point x="45" y="126"/>
      <point x="207" y="-14"/>
    </contour>
  </outline>
</glyph>
<glyph name="H" format="1">
  <advance width="810"/>
  <unicode hex="0048"/>
  <outline>
    <contour>
      <point x="66" y="-5" type="curve" smooth="yes"/>
      <point x="120" y="-5"/>
      <point x="133" y="0"/>
      <point x="176" y="0" type="curve" smooth="yes"/>
      <point x="222" y="0"/>
      <point x="239" y="-5"/>
      <point x="293" y="-5" type="curve" smooth="yes"/>
      <point x="310" y="-5"/>
      <point x="322" y="0"/>
      <point x="322" y="8" type="curve" smooth="yes"/>
      <point x="322" y="21"/>
      <point x="311" y="21"/>
      <point x="290" y="31" type="curve" smooth="yes"/>
      <point x="244" y="54"/>
      <point x="210" y="88"/>
      <point x="210" y="149" type="curve" smooth="yes"/>
      <point x="210" y="296" type="line" smooth="yes"/>
      <point x="210" y="304"/>
      <point x="210" y="307"/>
      <point x="215" y="307" type="curve" smooth="yes"/>
      <point x="597" y="307" type="line" smooth="yes"/>
      <point x="603" y="307"/>
      <point x="602" y="299"/>
      <point x="602" y="292" type="curve" smooth="yes"/>
      <point x="602" y="149" type="line" smooth="yes"/>
      <point x="602" y="79"/>
      <point x="575" y="44"/>
      <point x="541" y="31" type="curve" smooth="yes"/>
      <point x="510" y="20"/>
      <point x="501" y="17"/>
      <point x="501" y="8" type="curve" smooth="yes"/>
      <point x="501" y="0"/>
      <point x="513" y="-5"/>
      <point x="530" y="-5" type="curve" smooth="yes"/>
      <point x="584" y="-5"/>
      <point x="595" y="0"/>
      <point x="637" y="0" type="curve" smooth="yes"/>
      <point x="678" y="0"/>
      <point x="687" y="-5"/>
      <point x="741" y="-5" type="curve" smooth="yes"/>
      <point x="758" y="-5"/>
      <point x="770" y="0"/>
      <point x="770" y="8" type="curve" smooth="yes"/>
      <point x="770" y="17"/>
      <point x="761" y="25"/>
      <point x="738" y="31" type="curve" smooth="yes"/>
      <point x="688" y="45"/>
      <point x="682" y="73"/>
      <point x="682" y="149" type="curve" smooth="yes"/>
      <point x="682" y="482" type="line" smooth="yes"/>
      <point x="682" y="554"/>
      <point x="685" y="598"/>
      <point x="735" y="615" type="curve" smooth="yes"/>
      <point x="758" y="627"/>
      <point x="768" y="631"/>
      <point x="768" y="640" type="curve" smooth="yes"/>
      <point x="768" y="648"/>
      <point x="758" y="653"/>
      <point x="739" y="653" type="curve" smooth="yes"/>
      <point x="685" y="653"/>
      <point x="684" y="650"/>
      <point x="648" y="650" type="curve" smooth="yes"/>
      <point x="603" y="650"/>
      <point x="586" y="653"/>
      <point x="532" y="653" type="curve" smooth="yes"/>
      <point x="514" y="653"/>
      <point x="503" y="648"/>
      <point x="503" y="640" type="curve" smooth="yes"/>
      <point x="503" y="631"/>
      <point x="513" y="628"/>
      <point x="536" y="616" type="curve" smooth="yes"/>
      <point x="586" y="599"/>
      <point x="602" y="550"/>
      <point x="602" y="482" type="curve" smooth="yes"/>
      <point x="602" y="357" type="line" smooth="yes"/>
      <point x="602" y="348"/>
      <point x="600" y="345"/>
      <point x="595" y="345" type="curve" smooth="yes"/>
      <point x="224" y="345" type="line" smooth="yes"/>
      <point x="218" y="345"/>
      <point x="210" y="354"/>
      <point x="210" y="360" type="curve" smooth="yes"/>
      <point x="210" y="482" type="line" smooth="yes"/>
      <point x="210" y="574"/>
      <point x="241" y="601"/>
      <point x="278" y="614" type="curve" smooth="yes"/>
      <point x="301" y="622"/>
      <point x="311" y="631"/>
      <point x="311" y="640" type="curve" smooth="yes"/>
      <point x="311" y="648"/>
      <point x="302" y="653"/>
      <point x="282" y="653" type="curve" smooth="yes"/>
      <point x="228" y="653"/>
      <point x="217" y="650"/>
      <point x="176" y="650" type="curve" smooth="yes"/>
      <point x="136" y="650"/>
      <point x="127" y="653"/>
      <point x="73" y="653" type="curve" smooth="yes"/>
      <point x="53" y="653"/>
      <point x="44" y="648"/>
      <point x="44" y="640" type="curve" smooth="yes"/>
      <point x="44" y="631"/>
      <point x="54" y="622"/>
      <point x="77" y="614" type="curve" smooth="yes"/>
      <point x="127" y="597"/>
      <point x="130" y="566"/>
      <point x="130" y="482" type="curve" smooth="yes"/>
      <point x="130" y="139" type="line" smooth="yes"/>
      <point x="130" y="70"/>
      <point x="119" y="55"/>
      <point x="69" y="31" type="curve" smooth="yes"/>
      <point x="47" y="21"/>
      <point x="37" y="21"/>
      <point x="37" y="8" type="curve" smooth="yes"/>
      <point x="37" y="0"/>
      <point x="49" y="-5"/>
    </contour>
  </outline>
</glyph>
<glyph name="J" format="1">
  <advance width="340"/>
  <unicode hex="004A"/>
  <outline>
    <contour>
      <point x="34" y="-200" type="curve" smooth="yes"/>
      <point x="73" y="-200"/>
      <point x="104" y="-178"/>
      <point x="131" y="-146" type="curve" smooth="yes"/>
      <point x="163" y="-108"/>
      <point x="210" y="-37"/>
      <point x="210" y="47" type="curve" smooth="yes"/>
      <point x="210" y="525" type="line" smooth="yes"/>
      <point x="210" y="584"/>
      <point x="217" y="605"/>
      <point x="267" y="616" type="curve" smooth="yes"/>
      <point x="290" y="621"/>
      <point x="300" y="630"/>
      <point x="300" y="642" type="curve" smooth="yes"/>
      <point x="300" y="650"/>
      <point x="288" y="653"/>
      <point x="271" y="653" type="curve" smooth="yes"/>
      <point x="217" y="653"/>
      <point x="214" y="650"/>
      <point x="177" y="650" type="curve" smooth="yes"/>
      <point x="131" y="650"/>
      <point x="114" y="653"/>
      <point x="60" y="653" type="curve" smooth="yes"/>
      <point x="43" y="653"/>
      <point x="31" y="650"/>
      <point x="31" y="642" type="curve" smooth="yes"/>
      <point x="31" y="630"/>
      <point x="42" y="621"/>
      <point x="64" y="616" type="curve" smooth="yes"/>
      <point x="112" y="605"/>
      <point x="130" y="584"/>
      <point x="130" y="525" type="curve" smooth="yes"/>
      <point x="130" y="-1" type="line" smooth="yes"/>
      <point x="130" y="-98"/>
      <point x="111" y="-159"/>
      <point x="64" y="-159" type="curve" smooth="yes"/>
      <point x="49" y="-159"/>
      <point x="42" y="-142"/>
      <point x="34" y="-123" type="curve" smooth="yes"/>
      <point x="24" y="-102"/>
      <point x="11" y="-80"/>
      <point x="-23" y="-80" type="curve" smooth="yes"/>
      <point x="-57" y="-80"/>
      <point x="-79" y="-106"/>
      <point x="-79" y="-139" type="curve" smooth="yes"/>
      <point x="-79" y="-177"/>
      <point x="-41" y="-200"/>
    </contour>
  </outline>
</glyph>
<glyph name="K" format="1">
  <advance width="681"/>
  <unicode hex="004B"/>
  <outline>
    <contour>
      <point x="114" y="-5"/>
      <point x="137" y="2"/>
      <point x="186" y="2" type="curve" smooth="yes"/>
      <point x="224" y="2"/>
      <point x="230" y="-5"/>
      <point x="284" y="-5" type="curve" smooth="yes"/>
      <point x="301" y="-5"/>
      <point x="313" y="-1"/>
      <point x="313" y="10" type="curve" smooth="yes"/>
      <point x="313" y="23"/>
      <point x="301" y="25"/>
      <point x="280" y="35" type="curve" smooth="yes"/>
      <point x="230" y="58"/>
      <point x="218" y="105"/>
      <point x="216" y="155" type="curve" smooth="yes"/>
      <point x="215" y="190"/>
      <point x="211" y="239"/>
      <point x="211" y="302" type="curve" smooth="yes"/>
      <point x="211" y="309"/>
      <point x="210" y="323"/>
      <point x="215" y="323" type="curve" smooth="yes"/>
      <point x="220" y="323"/>
      <point x="230" y="314"/>
      <point x="238" y="306" type="curve"/>
      <point x="434" y="90" type="line" smooth="yes"/>
      <point x="452" y="71"/>
      <point x="461" y="62"/>
      <point x="461" y="53" type="curve" smooth="yes"/>
      <point x="461" y="44"/>
      <point x="456" y="36"/>
      <point x="436" y="31" type="curve" smooth="yes"/>
      <point x="417" y="26"/>
      <point x="410" y="21"/>
      <point x="410" y="11" type="curve" smooth="yes"/>
      <point x="410" y="2"/>
      <point x="422" y="-1"/>
      <point x="439" y="-1" type="curve" smooth="yes"/>
      <point x="484" y="-1"/>
      <point x="495" y="0"/>
      <point x="520" y="0" type="curve" smooth="yes"/>
      <point x="575" y="0"/>
      <point x="600" y="-5"/>
      <point x="659" y="-5" type="curve" smooth="yes"/>
      <point x="676" y="-5"/>
      <point x="688" y="-1"/>
      <point x="688" y="8" type="curve" smooth="yes"/>
      <point x="688" y="19"/>
      <point x="679" y="22"/>
      <point x="655" y="30" type="curve" smooth="yes"/>
      <point x="603" y="47"/>
      <point x="567" y="70"/>
      <point x="519" y="121" type="curve" smooth="yes"/>
      <point x="303" y="353" type="line" smooth="yes"/>
      <point x="296" y="360"/>
      <point x="293" y="366"/>
      <point x="298" y="371" type="curve"/>
      <point x="368" y="448"/>
      <point x="403" y="484"/>
      <point x="450" y="524" type="curve" smooth="yes"/>
      <point x="515" y="579"/>
      <point x="570" y="595"/>
      <point x="642" y="609" type="curve" smooth="yes"/>
      <point x="664" y="613"/>
      <point x="675" y="625"/>
      <point x="675" y="639" type="curve" smooth="yes"/>
      <point x="675" y="649"/>
      <point x="666" y="655"/>
      <point x="653" y="655" type="curve" smooth="yes"/>
      <point x="640" y="655"/>
      <point x="548" y="651"/>
      <point x="491" y="651" type="curve" smooth="yes"/>
      <point x="437" y="651" type="line" smooth="yes"/>
      <point x="420" y="651"/>
      <point x="408" y="647"/>
      <point x="408" y="635" type="curve" smooth="yes"/>
      <point x="408" y="622"/>
      <point x="416" y="615"/>
      <point x="435" y="608" type="curve"/>
      <point x="441" y="607"/>
      <point x="448" y="598"/>
      <point x="448" y="587" type="curve" smooth="yes"/>
      <point x="448" y="578"/>
      <point x="443" y="567"/>
      <point x="433" y="557" type="curve" smooth="yes"/>
      <point x="243" y="363" type="line"/>
      <point x="236" y="355"/>
      <point x="223" y="345"/>
      <point x="216" y="345" type="curve" smooth="yes"/>
      <point x="211" y="345"/>
      <point x="211" y="359"/>
      <point x="211" y="364" type="curve" smooth="yes"/>
      <point x="211" y="508" type="line" smooth="yes"/>
      <point x="211" y="553"/>
      <point x="215" y="586"/>
      <point x="265" y="609" type="curve" smooth="yes"/>
      <point x="287" y="619"/>
      <point x="298" y="625"/>
      <point x="298" y="637" type="curve" smooth="yes"/>
      <point x="298" y="649"/>
      <point x="286" y="653"/>
      <point x="269" y="653" type="curve" smooth="yes"/>
      <point x="215" y="653"/>
      <point x="210" y="651"/>
      <point x="172" y="651" type="curve" smooth="yes"/>
      <point x="128" y="651"/>
      <point x="114" y="653"/>
      <point x="60" y="653" type="curve" smooth="yes"/>
      <point x="43" y="653"/>
      <point x="31" y="649"/>
      <point x="31" y="638" type="curve" smooth="yes"/>
      <point x="31" y="626"/>
      <point x="41" y="618"/>
      <point x="64" y="611" type="curve" smooth="yes"/>
      <point x="114" y="595"/>
      <point x="131" y="574"/>
      <point x="131" y="516" type="curve" smooth="yes"/>
      <point x="131" y="154" type="line" smooth="yes"/>
      <point x="131" y="86"/>
      <point x="114" y="56"/>
      <point x="64" y="36" type="curve" smooth="yes"/>
      <point x="42" y="27"/>
      <point x="31" y="23"/>
      <point x="31" y="11" type="curve" smooth="yes"/>
      <point x="31" y="0"/>
      <point x="43" y="-5"/>
      <point x="60" y="-5" type="curve" smooth="yes"/>
    </contour>
  </outline>
</glyph>
<glyph name="L" format="1">
  <advance width="594"/>
  <unicode hex="004C"/>
  <outline>
    <contour>
      <point x="65" y="-5"/>
      <point x="150" y="1"/>
      <point x="200" y="0" type="curve" smooth="yes"/>
      <point x="300" y="0"/>
      <point x="409" y="-5"/>
      <point x="543" y="-5" type="curve" smooth="yes"/>
      <point x="553" y="-5"/>
      <point x="556" y="3"/>
      <point x="557" y="12" type="curve" smooth="yes"/>
      <point x="561" y="54"/>
      <point x="570" y="87"/>
      <point x="584" y="139" type="curve"/>
      <point x="584" y="140"/>
      <point x="585" y="142"/>
      <point x="585" y="144" type="curve" smooth="yes"/>
      <point x="585" y="152"/>
      <point x="579" y="162"/>
      <point x="568" y="162" type="curve" smooth="yes"/>
      <point x="558" y="162"/>
      <point x="546" y="154"/>
      <point x="535" y="136" type="curve" smooth="yes"/>
      <point x="512" y="99"/>
      <point x="506" y="89"/>
      <point x="470" y="66" type="curve" smooth="yes"/>
      <point x="452" y="54"/>
      <point x="406" y="35"/>
      <point x="356" y="35" type="curve" smooth="yes"/>
      <point x="336" y="35" type="line" smooth="yes"/>
      <point x="247" y="35"/>
      <point x="220" y="78"/>
      <point x="220" y="145" type="curve" smooth="yes"/>
      <point x="220" y="495" type="line" smooth="yes"/>
      <point x="220" y="590"/>
      <point x="256" y="604"/>
      <point x="306" y="616" type="curve" smooth="yes"/>
      <point x="329" y="622"/>
      <point x="342" y="626"/>
      <point x="342" y="638" type="curve" smooth="yes"/>
      <point x="342" y="649"/>
      <point x="330" y="653"/>
      <point x="313" y="653" type="curve" smooth="yes"/>
      <point x="259" y="653"/>
      <point x="236" y="650"/>
      <point x="187" y="650" type="curve" smooth="yes"/>
      <point x="143" y="650"/>
      <point x="129" y="653"/>
      <point x="75" y="653" type="curve" smooth="yes"/>
      <point x="58" y="653"/>
      <point x="46" y="649"/>
      <point x="46" y="640" type="curve" smooth="yes"/>
      <point x="46" y="629"/>
      <point x="56" y="622"/>
      <point x="79" y="616" type="curve" smooth="yes"/>
      <point x="130" y="603"/>
      <point x="140" y="588"/>
      <point x="140" y="494" type="curve" smooth="yes"/>
      <point x="140" y="124" type="line" smooth="yes"/>
      <point x="140" y="65"/>
      <point x="111" y="40"/>
      <point x="59" y="27" type="curve" smooth="yes"/>
      <point x="52" y="25"/>
      <point x="37" y="21"/>
      <point x="37" y="8" type="curve" smooth="yes"/>
      <point x="37" y="1"/>
      <point x="47" y="-5"/>
      <point x="65" y="-5" type="curve"/>
    </contour>
  </outline>
</glyph>
<glyph name="M" format="1">
  <advance width="901"/>
  <unicode hex="004D"/>
  <outline>
    <contour>
      <point x="48" y="-5" type="curve" smooth="yes"/>
      <point x="102" y="-5"/>
      <point x="103" y="0"/>
      <point x="139" y="0" type="curve" smooth="yes"/>
      <point x="176" y="0"/>
      <point x="179" y="-5"/>
      <point x="233" y="-5" type="curve" smooth="yes"/>
      <point x="250" y="-5"/>
      <point x="262" y="-1"/>
      <point x="262" y="11" type="curve" smooth="yes"/>
      <point x="262" y="24"/>
      <point x="252" y="32"/>
      <point x="229" y="38" type="curve" smooth="yes"/>
      <point x="175" y="52"/>
      <point x="160" y="88"/>
      <point x="164" y="152" type="curve" smooth="yes"/>
      <point x="169" y="238"/>
      <point x="177" y="330"/>
      <point x="196" y="471" type="curve" smooth="yes"/>
      <point x="197" y="478"/>
      <point x="206" y="478"/>
      <point x="209" y="471" type="curve" smooth="yes"/>
      <point x="284" y="296"/>
      <point x="341" y="152"/>
      <point x="393" y="-4" type="curve" smooth="yes"/>
      <point x="396" y="-13"/>
      <point x="408" y="-12"/>
      <point x="411" y="-5" type="curve" smooth="yes"/>
      <point x="641" y="464" type="line" smooth="yes"/>
      <point x="648" y="477"/>
      <point x="655" y="478"/>
      <point x="657" y="464" type="curve"/>
      <point x="663" y="329"/>
      <point x="669" y="240"/>
      <point x="669" y="163" type="curve" smooth="yes"/>
      <point x="669" y="85"/>
      <point x="657" y="52"/>
      <point x="618" y="43" type="curve" smooth="yes"/>
      <point x="595" y="38"/>
      <point x="585" y="28"/>
      <point x="585" y="13" type="curve" smooth="yes"/>
      <point x="585" y="0"/>
      <point x="597" y="-5"/>
      <point x="614" y="-5" type="curve" smooth="yes"/>
      <point x="668" y="-5"/>
      <point x="678" y="0"/>
      <point x="719" y="0" type="curve" smooth="yes"/>
      <point x="765" y="0"/>
      <point x="782" y="-5"/>
      <point x="836" y="-5" type="curve" smooth="yes"/>
      <point x="853" y="-5"/>
      <point x="865" y="0"/>
      <point x="865" y="13" type="curve" smooth="yes"/>
      <point x="865" y="28"/>
      <point x="855" y="37"/>
      <point x="832" y="43" type="curve" smooth="yes"/>
      <point x="782" y="58"/>
      <point x="759" y="93"/>
      <point x="757" y="161" type="curve" smooth="yes"/>
      <point x="749" y="246"/>
      <point x="735" y="382"/>
      <point x="735" y="525" type="curve" smooth="yes"/>
      <point x="735" y="547"/>
      <point x="745" y="567"/>
      <point x="759" y="575" type="curve" smooth="yes"/>
      <point x="777" y="587"/>
      <point x="800" y="599"/>
      <point x="818" y="610" type="curve" smooth="yes"/>
      <point x="838" y="622"/>
      <point x="844" y="628"/>
      <point x="844" y="641" type="curve" smooth="yes"/>
      <point x="844" y="655"/>
      <point x="829" y="656"/>
      <point x="823" y="656" type="curve" smooth="yes"/>
      <point x="800" y="656"/>
      <point x="749" y="648"/>
      <point x="709" y="648" type="curve" smooth="yes"/>
      <point x="673" y="648" type="line" smooth="yes"/>
      <point x="668" y="648"/>
      <point x="665" y="643"/>
      <point x="663" y="635" type="curve" smooth="yes"/>
      <point x="659" y="614"/>
      <point x="651" y="582"/>
      <point x="645" y="560" type="curve"/>
      <point x="448" y="150" type="line" smooth="yes"/>
      <point x="443" y="140"/>
      <point x="429" y="143"/>
      <point x="425" y="153" type="curve" smooth="yes"/>
      <point x="267" y="554" type="line" smooth="yes"/>
      <point x="257" y="579"/>
      <point x="252" y="607"/>
      <point x="245" y="631" type="curve" smooth="yes"/>
      <point x="242" y="641"/>
      <point x="235" y="647"/>
      <point x="226" y="647" type="curve" smooth="yes"/>
      <point x="200" y="647"/>
      <point x="102" y="655"/>
      <point x="76" y="655" type="curve" smooth="yes"/>
      <point x="56" y="655"/>
      <point x="42" y="651"/>
      <point x="42" y="637" type="curve" smooth="yes"/>
      <point x="42" y="624"/>
      <point x="51" y="616"/>
      <point x="64" y="612" type="curve" smooth="yes"/>
      <point x="94" y="604"/>
      <point x="115" y="598"/>
      <point x="139" y="570" type="curve" smooth="yes"/>
      <point x="152" y="555"/>
      <point x="153" y="540"/>
      <point x="154" y="524" type="curve" smooth="yes"/>
      <point x="155" y="511"/>
      <point x="155" y="493"/>
      <point x="155" y="479" type="curve" smooth="yes"/>
      <point x="155" y="444"/>
      <point x="136" y="282"/>
      <point x="121" y="163" type="curve" smooth="yes"/>
      <point x="111" y="84"/>
      <point x="95" y="48"/>
      <point x="52" y="35" type="curve" smooth="yes"/>
      <point x="29" y="29"/>
      <point x="19" y="21"/>
      <point x="19" y="6" type="curve" smooth="yes"/>
      <point x="19" y="-2"/>
      <point x="31" y="-5"/>
    </contour>
  </outline>
</glyph>
<glyph name="N" format="1">
  <advance width="792"/>
  <unicode hex="004E"/>
  <outline>
    <contour>
      <point x="668" y="-17" type="curve" smooth="yes"/>
      <point x="678" y="-17"/>
      <point x="689" y="-13"/>
      <point x="689" y="8" type="curve" smooth="yes"/>
      <point x="689" y="21"/>
      <point x="684" y="57"/>
      <point x="684" y="105" type="curve" smooth="yes"/>
      <point x="684" y="263"/>
      <point x="685" y="455"/>
      <point x="686" y="489" type="curve" smooth="yes"/>
      <point x="689" y="571"/>
      <point x="702" y="589"/>
      <point x="746" y="604" type="curve" smooth="yes"/>
      <point x="769" y="612"/>
      <point x="782" y="617"/>
      <point x="782" y="634" type="curve" smooth="yes"/>
      <point x="782" y="649"/>
      <point x="770" y="653"/>
      <point x="753" y="653" type="curve" smooth="yes"/>
      <point x="692" y="653"/>
      <point x="686" y="650"/>
      <point x="638" y="650" type="curve" smooth="yes"/>
      <point x="619" y="650"/>
      <point x="600" y="650"/>
      <point x="581" y="647" type="curve" smooth="yes"/>
      <point x="564" y="647"/>
      <point x="540" y="641"/>
      <point x="540" y="626" type="curve" smooth="yes"/>
      <point x="540" y="609"/>
      <point x="562" y="603"/>
      <point x="585" y="596" type="curve" smooth="yes"/>
      <point x="632" y="579"/>
      <point x="642" y="570"/>
      <point x="643" y="482" type="curve" smooth="yes"/>
      <point x="643" y="381"/>
      <point x="642" y="195"/>
      <point x="641" y="157" type="curve"/>
      <point x="640" y="142"/>
      <point x="636" y="136"/>
      <point x="631" y="136" type="curve" smooth="yes"/>
      <point x="623" y="136"/>
      <point x="611" y="150"/>
      <point x="606" y="156" type="curve" smooth="yes"/>
      <point x="586" y="180"/>
      <point x="232" y="609"/>
      <point x="213" y="636" type="curve"/>
      <point x="206" y="645"/>
      <point x="201" y="653"/>
      <point x="189" y="653" type="curve" smooth="yes"/>
      <point x="117" y="652"/>
      <point x="113" y="656"/>
      <point x="35" y="658" type="curve" smooth="yes"/>
      <point x="28" y="658"/>
      <point x="12" y="656"/>
      <point x="12" y="642" type="curve" smooth="yes"/>
      <point x="12" y="628"/>
      <point x="37" y="616"/>
      <point x="43" y="614" type="curve" smooth="yes"/>
      <point x="99" y="593"/>
      <point x="142" y="557"/>
      <point x="142" y="482" type="curve" smooth="yes"/>
      <point x="142" y="342"/>
      <point x="130" y="208"/>
      <point x="126" y="171" type="curve" smooth="yes"/>
      <point x="119" y="108"/>
      <point x="104" y="58"/>
      <point x="66" y="42" type="curve" smooth="yes"/>
      <point x="43" y="33"/>
      <point x="33" y="26"/>
      <point x="33" y="12" type="curve" smooth="yes"/>
      <point x="33" y="0"/>
      <point x="45" y="-5"/>
      <point x="62" y="-5" type="curve" smooth="yes"/>
      <point x="116" y="-5"/>
      <point x="117" y="3"/>
      <point x="153" y="0" type="curve" smooth="yes"/>
      <point x="190" y="3"/>
      <point x="193" y="-5"/>
      <point x="247" y="-5" type="curve" smooth="yes"/>
      <point x="264" y="-5"/>
      <point x="276" y="0"/>
      <point x="276" y="12" type="curve" smooth="yes"/>
      <point x="276" y="26"/>
      <point x="266" y="34"/>
      <point x="243" y="41" type="curve" smooth="yes"/>
      <point x="193" y="55"/>
      <point x="179" y="110"/>
      <point x="179" y="166" type="curve" smooth="yes"/>
      <point x="179" y="227"/>
      <point x="182" y="380"/>
      <point x="184" y="479" type="curve" smooth="yes"/>
      <point x="184" y="487"/>
      <point x="186" y="500"/>
      <point x="193" y="500" type="curve" smooth="yes"/>
      <point x="198" y="500"/>
      <point x="204" y="496"/>
      <point x="214" y="484" type="curve" smooth="yes"/>
      <point x="237" y="456"/>
      <point x="564" y="71"/>
      <point x="582" y="46" type="curve" smooth="yes"/>
      <point x="614" y="2"/>
      <point x="656" y="-17"/>
    </contour>
  </outline>
</glyph>
<glyph name="R" format="1">
  <advance width="713"/>
  <unicode hex="0052"/>
  <outline>
    <contour>
      <point x="637" y="-21" type="curve" smooth="yes"/>
      <point x="662" y="-21"/>
      <point x="718" y="-15"/>
      <point x="718" y="14" type="curve" smooth="yes"/>
      <point x="718" y="22"/>
      <point x="713" y="25"/>
      <point x="703" y="25" type="curve" smooth="yes"/>
      <point x="656" y="25"/>
      <point x="623" y="27"/>
      <point x="588" y="58" type="curve" smooth="yes"/>
      <point x="494" y="143"/>
      <point x="447" y="218"/>
      <point x="385" y="312" type="curve" smooth="yes"/>
      <point x="381" y="318"/>
      <point x="380" y="323"/>
      <point x="385" y="325" type="curve"/>
      <point x="440" y="353"/>
      <point x="503" y="403"/>
      <point x="503" y="493" type="curve" smooth="yes"/>
      <point x="503" y="602"/>
      <point x="424" y="657"/>
      <point x="278" y="657" type="curve" smooth="yes"/>
      <point x="220" y="657"/>
      <point x="201" y="652"/>
      <point x="163" y="652" type="curve" smooth="yes"/>
      <point x="122" y="652"/>
      <point x="119" y="653"/>
      <point x="65" y="653" type="curve" smooth="yes"/>
      <point x="48" y="653"/>
      <point x="36" y="650"/>
      <point x="36" y="642" type="curve" smooth="yes"/>
      <point x="36" y="633"/>
      <point x="47" y="625"/>
      <point x="69" y="617" type="curve" smooth="yes"/>
      <point x="126" y="597"/>
      <point x="130" y="579"/>
      <point x="130" y="473" type="curve" smooth="yes"/>
      <point x="130" y="143" type="line" smooth="yes"/>
      <point x="130" y="70"/>
      <point x="107" y="45"/>
      <point x="57" y="28" type="curve" smooth="yes"/>
      <point x="35" y="21"/>
      <point x="24" y="15"/>
      <point x="24" y="6" type="curve" smooth="yes"/>
      <point x="24" y="-2"/>
      <point x="36" y="-5"/>
      <point x="53" y="-5" type="curve" smooth="yes"/>
      <point x="107" y="-5"/>
      <point x="132" y="2"/>
      <point x="183" y="2" type="curve" smooth="yes"/>
      <point x="221" y="2"/>
      <point x="227" y="-5"/>
      <point x="281" y="-5" type="curve" smooth="yes"/>
      <point x="298" y="-5"/>
      <point x="310" y="1"/>
      <point x="310" y="9" type="curve" smooth="yes"/>
      <point x="310" y="18"/>
      <point x="300" y="30"/>
      <point x="277" y="39" type="curve" smooth="yes"/>
      <point x="226" y="59"/>
      <point x="210" y="101"/>
      <point x="210" y="158" type="curve" smooth="yes"/>
      <point x="210" y="286" type="line" smooth="yes"/>
      <point x="210" y="298"/>
      <point x="214" y="307"/>
      <point x="225" y="306" type="curve" smooth="yes"/>
      <point x="243" y="304"/>
      <point x="275" y="299"/>
      <point x="304" y="285" type="curve" smooth="yes"/>
      <point x="324" y="275"/>
      <point x="336" y="264"/>
      <point x="347" y="246" type="curve" smooth="yes"/>
      <point x="416" y="134"/>
      <point x="450" y="93"/>
      <point x="499" y="33" type="curve" smooth="yes"/>
      <point x="534" y="-10"/>
      <point x="580" y="-21"/>
    </contour>
    <contour>
      <point x="263" y="329" type="curve" smooth="yes"/>
      <point x="230" y="329"/>
      <point x="210" y="331"/>
      <point x="210" y="364" type="curve" smooth="yes"/>
      <point x="210" y="444"/>
      <point x="211" y="455"/>
      <point x="212" y="489" type="curve" smooth="yes"/>
      <point x="216" y="580"/>
      <point x="240" y="627"/>
      <point x="273" y="627" type="curve" smooth="yes"/>
      <point x="392" y="627"/>
      <point x="413" y="558"/>
      <point x="413" y="477" type="curve" smooth="yes"/>
      <point x="413" y="400"/>
      <point x="355" y="329"/>
    </contour>
  </outline>
</glyph>
<glyph name="S" format="1">
  <advance width="465"/>
  <unicode hex="0053"/>
  <outline>
    <contour>
      <point x="204" y="-16" type="curve" smooth="yes"/>
      <point x="335" y="-16"/>
      <point x="422" y="61"/>
      <point x="422" y="180" type="curve" smooth="yes"/>
      <point x="422" y="280"/>
      <point x="347" y="327"/>
      <point x="277" y="370" type="curve" smooth="yes"/>
      <point x="202" y="416"/>
      <point x="137" y="456"/>
      <point x="137" y="516" type="curve" smooth="yes"/>
      <point x="137" y="600"/>
      <point x="191" y="627"/>
      <point x="245" y="627" type="curve" smooth="yes"/>
      <point x="311" y="627"/>
      <point x="333" y="592"/>
      <point x="366" y="504" type="curve" smooth="yes"/>
      <point x="369" y="496"/>
      <point x="386" y="482"/>
      <point x="398" y="482" type="curve" smooth="yes"/>
      <point x="406" y="482"/>
      <point x="416" y="496"/>
      <point x="416" y="504" type="curve" smooth="yes"/>
      <point x="416" y="536"/>
      <point x="403" y="589"/>
      <point x="395" y="617" type="curve" smooth="yes"/>
      <point x="392" y="627"/>
      <point x="384" y="638"/>
      <point x="374" y="642" type="curve" smooth="yes"/>
      <point x="352" y="651"/>
      <point x="317" y="664"/>
      <point x="269" y="664" type="curve" smooth="yes"/>
      <point x="128" y="664"/>
      <point x="60" y="583"/>
      <point x="60" y="482" type="curve" smooth="yes"/>
      <point x="60" y="385"/>
      <point x="147" y="340"/>
      <point x="225" y="291" type="curve" smooth="yes"/>
      <point x="296" y="247"/>
      <point x="338" y="221"/>
      <point x="338" y="139" type="curve" smooth="yes"/>
      <point x="338" y="65"/>
      <point x="287" y="17"/>
      <point x="218" y="17" type="curve" smooth="yes"/>
      <point x="161" y="17"/>
      <point x="130" y="61"/>
      <point x="94" y="150" type="curve" smooth="yes"/>
      <point x="83" y="178"/>
      <point x="74" y="181"/>
      <point x="65" y="181" type="curve" smooth="yes"/>
      <point x="51" y="181"/>
      <point x="40" y="172"/>
      <point x="42" y="146" type="curve" smooth="yes"/>
      <point x="43" y="135"/>
      <point x="43" y="79"/>
      <point x="50" y="52" type="curve" smooth="yes"/>
      <point x="52" y="44"/>
      <point x="58" y="37"/>
      <point x="63" y="32" type="curve"/>
      <point x="100" y="1"/>
      <point x="148" y="-16"/>
    </contour>
  </outline>
</glyph>
<glyph name="W" format="1">
  <advance width="916"/>
  <unicode hex="0057"/>
  <outline>
    <contour>
      <point x="335" y="-16" type="curve" smooth="yes"/>
      <point x="343" y="-16"/>
      <point x="352" y="1"/>
      <point x="357" y="15" type="curve" smooth="yes"/>
      <point x="399" y="133"/>
      <point x="423" y="197"/>
      <point x="471" y="310" type="curve" smooth="yes"/>
      <point x="476" y="323"/>
      <point x="478" y="325"/>
      <point x="482" y="316" type="curve"/>
      <point x="529" y="199"/>
      <point x="552" y="126"/>
      <point x="605" y="7" type="curve" smooth="yes"/>
      <point x="609" y="-2"/>
      <point x="617" y="-12"/>
      <point x="622" y="-12" type="curve" smooth="yes"/>
      <point x="629" y="-12"/>
      <point x="636" y="5"/>
      <point x="638" y="11" type="curve" smooth="yes"/>
      <point x="798" y="482" type="line" smooth="yes"/>
      <point x="812" y="523"/>
      <point x="837" y="593"/>
      <point x="893" y="608" type="curve" smooth="yes"/>
      <point x="919" y="616"/>
      <point x="930" y="624"/>
      <point x="930" y="637" type="curve" smooth="yes"/>
      <point x="930" y="649"/>
      <point x="916" y="653"/>
      <point x="897" y="653" type="curve" smooth="yes"/>
      <point x="876" y="653"/>
      <point x="844" y="650"/>
      <point x="811" y="650" type="curve" smooth="yes"/>
      <point x="785" y="650"/>
      <point x="765" y="651"/>
      <point x="730" y="651" type="curve" smooth="yes"/>
      <point x="718" y="651"/>
      <point x="710" y="646"/>
      <point x="710" y="634" type="curve" smooth="yes"/>
      <point x="710" y="621"/>
      <point x="723" y="610"/>
      <point x="733" y="604" type="curve" smooth="yes"/>
      <point x="749" y="595"/>
      <point x="762" y="573"/>
      <point x="762" y="542" type="curve" smooth="yes"/>
      <point x="762" y="526"/>
      <point x="758" y="512"/>
      <point x="750" y="483" type="curve" smooth="yes"/>
      <point x="724" y="389"/>
      <point x="678" y="242"/>
      <point x="645" y="154" type="curve"/>
      <point x="641" y="145"/>
      <point x="637" y="141"/>
      <point x="634" y="148" type="curve" smooth="yes"/>
      <point x="531" y="413" type="line"/>
      <point x="528" y="420"/>
      <point x="533" y="441"/>
      <point x="537" y="451" type="curve" smooth="yes"/>
      <point x="553" y="494"/>
      <point x="559" y="509"/>
      <point x="568" y="528" type="curve" smooth="yes"/>
      <point x="589" y="572"/>
      <point x="598" y="589"/>
      <point x="651" y="604" type="curve" smooth="yes"/>
      <point x="679" y="612"/>
      <point x="691" y="621"/>
      <point x="691" y="636" type="curve" smooth="yes"/>
      <point x="691" y="648"/>
      <point x="676" y="653"/>
      <point x="656" y="653" type="curve" smooth="yes"/>
      <point x="638" y="653"/>
      <point x="626" y="650"/>
      <point x="603" y="650" type="curve" smooth="yes"/>
      <point x="584" y="650"/>
      <point x="582" y="651"/>
      <point x="548" y="652" type="curve" smooth="yes"/>
      <point x="531" y="652"/>
      <point x="522" y="648"/>
      <point x="522" y="636" type="curve" smooth="yes"/>
      <point x="522" y="610"/>
      <point x="551" y="611"/>
      <point x="551" y="576" type="curve" smooth="yes"/>
      <point x="551" y="573"/>
      <point x="549" y="566"/>
      <point x="548" y="561" type="curve"/>
      <point x="543" y="544"/>
      <point x="534" y="514"/>
      <point x="518" y="478" type="curve" smooth="yes"/>
      <point x="510" y="460"/>
      <point x="507" y="462"/>
      <point x="500" y="478" type="curve" smooth="yes"/>
      <point x="491" y="497"/>
      <point x="485" y="514"/>
      <point x="479" y="529" type="curve" smooth="yes"/>
      <point x="472" y="545"/>
      <point x="465" y="566"/>
      <point x="465" y="581" type="curve" smooth="yes"/>
      <point x="465" y="612"/>
      <point x="494" y="614"/>
      <point x="494" y="637" type="curve" smooth="yes"/>
      <point x="494" y="648"/>
      <point x="482" y="652"/>
      <point x="465" y="652" type="curve" smooth="yes"/>
      <point x="445" y="652"/>
      <point x="418" y="650"/>
      <point x="388" y="650" type="curve" smooth="yes"/>
      <point x="352" y="650"/>
      <point x="330" y="653"/>
      <point x="299" y="653" type="curve" smooth="yes"/>
      <point x="279" y="653"/>
      <point x="265" y="649"/>
      <point x="265" y="637" type="curve" smooth="yes"/>
      <point x="265" y="623"/>
      <point x="278" y="621"/>
      <point x="303" y="611" type="curve" smooth="yes"/>
      <point x="343" y="595"/>
      <point x="392" y="549"/>
      <point x="413" y="487" type="curve" smooth="yes"/>
      <point x="450" y="396" type="line" smooth="yes"/>
      <point x="455" y="383"/>
      <point x="458" y="375"/>
      <point x="458" y="367" type="curve" smooth="yes"/>
      <point x="458" y="361"/>
      <point x="456" y="354"/>
      <point x="452" y="344" type="curve" smooth="yes"/>
      <point x="374" y="151" type="line"/>
      <point x="370" y="140"/>
      <point x="366" y="137"/>
      <point x="359" y="152" type="curve" smooth="yes"/>
      <point x="292" y="303"/>
      <point x="256" y="389"/>
      <point x="217" y="482" type="curve" smooth="yes"/>
      <point x="204" y="512"/>
      <point x="196" y="541"/>
      <point x="196" y="566" type="curve" smooth="yes"/>
      <point x="195" y="583"/>
      <point x="198" y="599"/>
      <point x="218" y="608" type="curve" smooth="yes"/>
      <point x="234" y="615"/>
      <point x="240" y="626"/>
      <point x="240" y="640" type="curve" smooth="yes"/>
      <point x="240" y="649"/>
      <point x="228" y="652"/>
      <point x="211" y="652" type="curve" smooth="yes"/>
      <point x="191" y="652"/>
      <point x="155" y="650"/>
      <point x="118" y="650" type="curve" smooth="yes"/>
      <point x="84" y="650"/>
      <point x="60" y="653"/>
      <point x="29" y="653" type="curve" smooth="yes"/>
      <point x="12" y="653"/>
      <point x="0" y="650"/>
      <point x="0" y="642" type="curve" smooth="yes"/>
      <point x="0" y="627"/>
      <point x="11" y="617"/>
      <point x="33" y="606" type="curve" smooth="yes"/>
      <point x="67" y="589"/>
      <point x="111" y="553"/>
      <point x="127" y="497" type="curve" smooth="yes"/>
      <point x="321" y="12" type="line" smooth="yes"/>
      <point x="326" y="-1"/>
      <point x="332" y="-16"/>
    </contour>
  </outline>
</glyph>
<glyph name="Y" format="1">
  <advance width="578"/>
  <unicode hex="0059"/>
  <outline>
    <contour>
      <point x="182" y="-5" type="curve" smooth="yes"/>
      <point x="236" y="-5"/>
      <point x="260" y="0"/>
      <point x="310" y="0" type="curve" smooth="yes"/>
      <point x="356" y="0"/>
      <point x="373" y="-5"/>
      <point x="427" y="-5" type="curve" smooth="yes"/>
      <point x="444" y="-5"/>
      <point x="456" y="-1"/>
      <point x="456" y="8" type="curve" smooth="yes"/>
      <point x="456" y="19"/>
      <point x="446" y="21"/>
      <point x="423" y="31" type="curve" smooth="yes"/>
      <point x="373" y="53"/>
      <point x="344" y="91"/>
      <point x="344" y="158" type="curve" smooth="yes"/>
      <point x="344" y="260" type="line" smooth="yes"/>
      <point x="344" y="299"/>
      <point x="343" y="307"/>
      <point x="369" y="350" type="curve" smooth="yes"/>
      <point x="415" y="425"/>
      <point x="432" y="453"/>
      <point x="465" y="500" type="curve" smooth="yes"/>
      <point x="513" y="568"/>
      <point x="533" y="591"/>
      <point x="568" y="604" type="curve" smooth="yes"/>
      <point x="596" y="615"/>
      <point x="621" y="626"/>
      <point x="621" y="638" type="curve" smooth="yes"/>
      <point x="621" y="649"/>
      <point x="609" y="653"/>
      <point x="592" y="653" type="curve" smooth="yes"/>
      <point x="569" y="653"/>
      <point x="529" y="650"/>
      <point x="488" y="650" type="curve" smooth="yes"/>
      <point x="459" y="650"/>
      <point x="443" y="651"/>
      <point x="413" y="651" type="curve" smooth="yes"/>
      <point x="396" y="651"/>
      <point x="384" y="643"/>
      <point x="384" y="632" type="curve" smooth="yes"/>
      <point x="384" y="620"/>
      <point x="400" y="610"/>
      <point x="417" y="606" type="curve" smooth="yes"/>
      <point x="436" y="602"/>
      <point x="451" y="594"/>
      <point x="451" y="571" type="curve" smooth="yes"/>
      <point x="451" y="560"/>
      <point x="440" y="533"/>
      <point x="423" y="504" type="curve" smooth="yes"/>
      <point x="406" y="474"/>
      <point x="386" y="437"/>
      <point x="356" y="390" type="curve" smooth="yes"/>
      <point x="338" y="362"/>
      <point x="331" y="352"/>
      <point x="323" y="352" type="curve" smooth="yes"/>
      <point x="317" y="352"/>
      <point x="309" y="364"/>
      <point x="295" y="390" type="curve" smooth="yes"/>
      <point x="214" y="540" type="line" smooth="yes"/>
      <point x="205" y="556"/>
      <point x="199" y="572"/>
      <point x="199" y="580" type="curve" smooth="yes"/>
      <point x="199" y="595"/>
      <point x="203" y="597"/>
      <point x="222" y="605" type="curve" smooth="yes"/>
      <point x="244" y="614"/>
      <point x="255" y="625"/>
      <point x="255" y="634" type="curve" smooth="yes"/>
      <point x="255" y="642"/>
      <point x="243" y="652"/>
      <point x="226" y="652" type="curve" smooth="yes"/>
      <point x="205" y="652"/>
      <point x="177" y="650"/>
      <point x="146" y="650" type="curve" smooth="yes"/>
      <point x="100" y="650"/>
      <point x="59" y="653"/>
      <point x="29" y="653" type="curve" smooth="yes"/>
      <point x="12" y="653"/>
      <point x="0" y="644"/>
      <point x="0" y="636" type="curve" smooth="yes"/>
      <point x="0" y="627"/>
      <point x="11" y="612"/>
      <point x="33" y="605" type="curve" smooth="yes"/>
      <point x="72" y="592"/>
      <point x="100" y="559"/>
      <point x="122" y="522" type="curve" smooth="yes"/>
      <point x="239" y="330" type="line"/>
      <point x="244" y="321"/>
      <point x="264" y="283"/>
      <point x="264" y="256" type="curve" smooth="yes"/>
      <point x="264" y="158" type="line" smooth="yes"/>
      <point x="264" y="84"/>
      <point x="236" y="47"/>
      <point x="186" y="30" type="curve" smooth="yes"/>
      <point x="163" y="22"/>
      <point x="153" y="19"/>
      <point x="153" y="8" type="curve" smooth="yes"/>
      <point x="153" y="-1"/>
      <point x="165" y="-5"/>
    </contour>
  </outline>
</glyph>
<glyph name="Z" format="1">
  <advance width="603"/>
  <unicode hex="005A"/>
  <outline>
    <contour>
      <point x="543" y="-5"/>
      <point x="547" y="4"/>
      <point x="551" y="12" type="curve" smooth="yes"/>
      <point x="562" y="36"/>
      <point x="588" y="147"/>
      <point x="588" y="158" type="curve" smooth="yes"/>
      <point x="588" y="167"/>
      <point x="578" y="182"/>
      <point x="571" y="182" type="curve" smooth="yes"/>
      <point x="549" y="182"/>
      <point x="543" y="173"/>
      <point x="537" y="156" type="curve" smooth="yes"/>
      <point x="512" y="88"/>
      <point x="469" y="46"/>
      <point x="403" y="41" type="curve" smooth="yes"/>
      <point x="376" y="38"/>
      <point x="312" y="36"/>
      <point x="292" y="36" type="curve" smooth="yes"/>
      <point x="248" y="36"/>
      <point x="208" y="38"/>
      <point x="179" y="41" type="curve"/>
      <point x="172" y="42"/>
      <point x="168" y="50"/>
      <point x="168" y="58" type="curve" smooth="yes"/>
      <point x="168" y="62"/>
      <point x="169" y="67"/>
      <point x="171" y="70" type="curve" smooth="yes"/>
      <point x="295" y="262"/>
      <point x="371" y="364"/>
      <point x="509" y="550" type="curve" smooth="yes"/>
      <point x="570" y="631" type="line" smooth="yes"/>
      <point x="574" y="636"/>
      <point x="565" y="649"/>
      <point x="559" y="649" type="curve" smooth="yes"/>
      <point x="485" y="647"/>
      <point x="411" y="646"/>
      <point x="328" y="646" type="curve" smooth="yes"/>
      <point x="283" y="646"/>
      <point x="235" y="646"/>
      <point x="202" y="646" type="curve" smooth="yes"/>
      <point x="168" y="646"/>
      <point x="129" y="656"/>
      <point x="116" y="662" type="curve" smooth="yes"/>
      <point x="105" y="667"/>
      <point x="90" y="676"/>
      <point x="85" y="676" type="curve" smooth="yes"/>
      <point x="80" y="676"/>
      <point x="71" y="674"/>
      <point x="70" y="659" type="curve" smooth="yes"/>
      <point x="67" y="617"/>
      <point x="50" y="562"/>
      <point x="43" y="541" type="curve"/>
      <point x="40" y="533"/>
      <point x="34" y="519"/>
      <point x="35" y="510" type="curve" smooth="yes"/>
      <point x="36" y="504"/>
      <point x="44" y="491"/>
      <point x="60" y="491" type="curve" smooth="yes"/>
      <point x="76" y="491"/>
      <point x="91" y="515"/>
      <point x="99" y="535" type="curve" smooth="yes"/>
      <point x="118" y="585"/>
      <point x="161" y="606"/>
      <point x="192" y="609" type="curve" smooth="yes"/>
      <point x="215" y="611"/>
      <point x="251" y="611"/>
      <point x="288" y="611" type="curve" smooth="yes"/>
      <point x="338" y="611"/>
      <point x="386" y="610"/>
      <point x="420" y="609" type="curve"/>
      <point x="434" y="608"/>
      <point x="438" y="605"/>
      <point x="438" y="601" type="curve" smooth="yes"/>
      <point x="438" y="598"/>
      <point x="436" y="596"/>
      <point x="434" y="593" type="curve" smooth="yes"/>
      <point x="306" y="401"/>
      <point x="222" y="290"/>
      <point x="86" y="104" type="curve" smooth="yes"/>
      <point x="63" y="73"/>
      <point x="28" y="21"/>
      <point x="28" y="11" type="curve"/>
      <point x="28" y="11"/>
      <point x="29" y="-3"/>
      <point x="35" y="-3" type="curve" smooth="yes"/>
      <point x="112" y="-3" type="line" smooth="yes"/>
      <point x="150" y="-3"/>
      <point x="191" y="-2"/>
      <point x="231" y="-2" type="curve" smooth="yes"/>
      <point x="320" y="-2"/>
      <point x="419" y="-5"/>
      <point x="533" y="-5" type="curve" smooth="yes"/>
    </contour>
  </outline>
</glyph>
<glyph name="asciicircum" format="1">
  <advance width="500"/>
  <unicode hex="005E"/>
  <outline>
    <contour>
      <point x="57" y="284" type="curve" smooth="yes"/>
      <point x="69" y="284"/>
      <point x="90" y="291"/>
      <point x="98" y="303" type="curve" smooth="yes"/>
      <point x="244" y="514" type="line"/>
      <point x="248" y="520"/>
      <point x="249" y="520"/>
      <point x="254" y="514" type="curve"/>
      <point x="402" y="302" type="line" smooth="yes"/>
      <point x="408" y="293"/>
      <point x="428" y="284"/>
      <point x="443" y="284" type="curve" smooth="yes"/>
      <point x="452" y="284"/>
      <point x="454" y="297"/>
      <point x="449" y="305" type="curve"/>
      <point x="251" y="603" type="line"/>
      <point x="248" y="603" type="line"/>
      <point x="51" y="305" type="line"/>
      <point x="49" y="302"/>
      <point x="48" y="298"/>
      <point x="48" y="295" type="curve" smooth="yes"/>
      <point x="48" y="289"/>
      <point x="52" y="284"/>
    </contour>
  </outline>
</glyph>
<glyph name="d" format="1">
  <advance width="506"/>
  <unicode hex="0064"/>
  <outline>
    <contour>
      <point x="357" y="-19" type="curve" smooth="yes"/>
      <point x="361" y="-19"/>
      <point x="362" y="-19"/>
      <point x="373" y="-13" type="curve" smooth="yes"/>
      <point x="420" y="7"/>
      <point x="453" y="16"/>
      <point x="490" y="21" type="curve" smooth="yes"/>
      <point x="497" y="21"/>
      <point x="504" y="39"/>
      <point x="504" y="48" type="curve" smooth="yes"/>
      <point x="504" y="56"/>
      <point x="499" y="67"/>
      <point x="486" y="66" type="curve" smooth="yes"/>
      <point x="469" y="65"/>
      <point x="450" y="63"/>
      <point x="443" y="63" type="curve" smooth="yes"/>
      <point x="428" y="63"/>
      <point x="422" y="82"/>
      <point x="422" y="128" type="curve" smooth="yes"/>
      <point x="422" y="562" type="line" smooth="yes"/>
      <point x="422" y="652"/>
      <point x="428" y="686"/>
      <point x="428" y="698" type="curve" smooth="yes"/>
      <point x="428" y="702"/>
      <point x="425" y="704"/>
      <point x="421" y="704" type="curve" smooth="yes"/>
      <point x="418" y="704"/>
      <point x="413" y="703"/>
      <point x="408" y="701" type="curve" smooth="yes"/>
      <point x="389" y="693"/>
      <point x="359" y="676"/>
      <point x="301" y="653" type="curve" smooth="yes"/>
      <point x="295" y="651"/>
      <point x="293" y="646"/>
      <point x="293" y="641" type="curve" smooth="yes"/>
      <point x="293" y="633"/>
      <point x="299" y="629"/>
      <point x="304" y="625" type="curve" smooth="yes"/>
      <point x="339" y="596"/>
      <point x="352" y="576"/>
      <point x="352" y="509" type="curve" smooth="yes"/>
      <point x="352" y="424" type="line" smooth="yes"/>
      <point x="352" y="406"/>
      <point x="348" y="400"/>
      <point x="345" y="400" type="curve" smooth="yes"/>
      <point x="342" y="400"/>
      <point x="338" y="401"/>
      <point x="332" y="403" type="curve" smooth="yes"/>
      <point x="317" y="408"/>
      <point x="287" y="414"/>
      <point x="260" y="414" type="curve" smooth="yes"/>
      <point x="120" y="414"/>
      <point x="35" y="306"/>
      <point x="35" y="190" type="curve" smooth="yes"/>
      <point x="35" y="89"/>
      <point x="106" y="-14"/>
      <point x="220" y="-14" type="curve" smooth="yes"/>
      <point x="286" y="-14"/>
      <point x="331" y="26"/>
      <point x="351" y="57" type="curve"/>
      <point x="351" y="51" type="line" smooth="yes"/>
      <point x="351" y="34"/>
      <point x="346" y="4"/>
      <point x="346" y="-9" type="curve" smooth="yes"/>
      <point x="346" y="-12"/>
      <point x="354" y="-19"/>
    </contour>
    <contour>
      <point x="256" y="38" type="curve" smooth="yes"/>
      <point x="212" y="38"/>
      <point x="106" y="62"/>
      <point x="106" y="213" type="curve" smooth="yes"/>
      <point x="106" y="346"/>
      <point x="183" y="379"/>
      <point x="229" y="379" type="curve" smooth="yes"/>
      <point x="303" y="379"/>
      <point x="352" y="321"/>
      <point x="352" y="267" type="curve" smooth="yes"/>
      <point x="351" y="87" type="line"/>
      <point x="326" y="58"/>
      <point x="291" y="38"/>
    </contour>
  </outline>
</glyph>
<glyph name="h" format="1">
  <advance width="515"/>
  <unicode hex="0068"/>
  <outline>
    <contour>
      <point x="39" y="-3" type="curve" smooth="yes"/>
      <point x="79" y="-3"/>
      <point x="85" y="2"/>
      <point x="120" y="2" type="curve" smooth="yes"/>
      <point x="155" y="2"/>
      <point x="156" y="-3"/>
      <point x="196" y="-3" type="curve" smooth="yes"/>
      <point x="211" y="-3"/>
      <point x="216" y="0"/>
      <point x="216" y="8" type="curve" smooth="yes"/>
      <point x="216" y="16"/>
      <point x="208" y="19"/>
      <point x="194" y="29" type="curve" smooth="yes"/>
      <point x="174" y="39"/>
      <point x="155" y="54"/>
      <point x="155" y="99" type="curve" smooth="yes"/>
      <point x="155" y="268" type="line" smooth="yes"/>
      <point x="155" y="309"/>
      <point x="161" y="323"/>
      <point x="182" y="340" type="curve" smooth="yes"/>
      <point x="201" y="355"/>
      <point x="240" y="362"/>
      <point x="265" y="362" type="curve" smooth="yes"/>
      <point x="308" y="362"/>
      <point x="358" y="322"/>
      <point x="358" y="272" type="curve" smooth="yes"/>
      <point x="358" y="99" type="line" smooth="yes"/>
      <point x="358" y="55"/>
      <point x="339" y="39"/>
      <point x="319" y="27" type="curve" smooth="yes"/>
      <point x="304" y="19"/>
      <point x="296" y="17"/>
      <point x="296" y="8" type="curve" smooth="yes"/>
      <point x="296" y="0"/>
      <point x="302" y="-3"/>
      <point x="316" y="-3" type="curve" smooth="yes"/>
      <point x="356" y="-3"/>
      <point x="359" y="2"/>
      <point x="394" y="2" type="curve" smooth="yes"/>
      <point x="429" y="2"/>
      <point x="432" y="-3"/>
      <point x="472" y="-3" type="curve" smooth="yes"/>
      <point x="486" y="-3"/>
      <point x="492" y="0"/>
      <point x="492" y="8" type="curve" smooth="yes"/>
      <point x="492" y="16"/>
      <point x="483" y="20"/>
      <point x="469" y="27" type="curve" smooth="yes"/>
      <point x="449" y="36"/>
      <point x="428" y="55"/>
      <point x="428" y="99" type="curve" smooth="yes"/>
      <point x="428" y="278" type="line" smooth="yes"/>
      <point x="428" y="356"/>
      <point x="379" y="414"/>
      <point x="314" y="414" type="curve" smooth="yes"/>
      <point x="240" y="414"/>
      <point x="172" y="358"/>
      <point x="148" y="341" type="curve"/>
      <point x="168" y="341" type="line"/>
      <point x="158" y="357"/>
      <point x="155" y="360"/>
      <point x="155" y="388" type="curve" smooth="yes"/>
      <point x="155" y="562" type="line" smooth="yes"/>
      <point x="155" y="669"/>
      <point x="164" y="686"/>
      <point x="164" y="698" type="curve" smooth="yes"/>
      <point x="164" y="702"/>
      <point x="161" y="705"/>
      <point x="157" y="705" type="curve" smooth="yes"/>
      <point x="155" y="705"/>
      <point x="153" y="704"/>
      <point x="151" y="703" type="curve" smooth="yes"/>
      <point x="118" y="689"/>
      <point x="68" y="666"/>
      <point x="40" y="654" type="curve" smooth="yes"/>
      <point x="34" y="652"/>
      <point x="31" y="646"/>
      <point x="31" y="640" type="curve" smooth="yes"/>
      <point x="31" y="632"/>
      <point x="35" y="629"/>
      <point x="49" y="619" type="curve" smooth="yes"/>
      <point x="73" y="602"/>
      <point x="85" y="561"/>
      <point x="85" y="498" type="curve" smooth="yes"/>
      <point x="85" y="99" type="line" smooth="yes"/>
      <point x="85" y="54"/>
      <point x="63" y="39"/>
      <point x="43" y="29" type="curve" smooth="yes"/>
      <point x="26" y="18"/>
      <point x="19" y="16"/>
      <point x="19" y="8" type="curve" smooth="yes"/>
      <point x="19" y="0"/>
      <point x="27" y="-3"/>
    </contour>
  </outline>
</glyph>
<glyph name="i" format="1">
  <advance width="245"/>
  <unicode hex="0069"/>
  <outline>
    <contour>
      <point x="44" y="-3" type="curve" smooth="yes"/>
      <point x="83" y="-3"/>
      <point x="90" y="2"/>
      <point x="125" y="2" type="curve" smooth="yes"/>
      <point x="160" y="2"/>
      <point x="168" y="-3"/>
      <point x="206" y="-3" type="curve" smooth="yes"/>
      <point x="219" y="-3"/>
      <point x="226" y="0"/>
      <point x="226" y="8" type="curve" smooth="yes"/>
      <point x="226" y="20"/>
      <point x="214" y="24"/>
      <point x="203" y="30" type="curve" smooth="yes"/>
      <point x="176" y="44"/>
      <point x="160" y="58"/>
      <point x="160" y="96" type="curve" smooth="yes"/>
      <point x="160" y="294" type="line" smooth="yes"/>
      <point x="160" y="339"/>
      <point x="169" y="413"/>
      <point x="169" y="429" type="curve" smooth="yes"/>
      <point x="169" y="432"/>
      <point x="162" y="434"/>
      <point x="158" y="434" type="curve" smooth="yes"/>
      <point x="153" y="434"/>
      <point x="143" y="429"/>
      <point x="136" y="423" type="curve" smooth="yes"/>
      <point x="115" y="406"/>
      <point x="89" y="385"/>
      <point x="51" y="373" type="curve" smooth="yes"/>
      <point x="38" y="369"/>
      <point x="35" y="365"/>
      <point x="35" y="356" type="curve" smooth="yes"/>
      <point x="35" y="346"/>
      <point x="38" y="340"/>
      <point x="53" y="337" type="curve" smooth="yes"/>
      <point x="79" y="333"/>
      <point x="90" y="292"/>
      <point x="90" y="246" type="curve" smooth="yes"/>
      <point x="90" y="96" type="line" smooth="yes"/>
      <point x="90" y="57"/>
      <point x="75" y="44"/>
      <point x="47" y="30" type="curve" smooth="yes"/>
      <point x="36" y="25"/>
      <point x="24" y="20"/>
      <point x="24" y="8" type="curve" smooth="yes"/>
      <point x="24" y="0"/>
      <point x="32" y="-3"/>
    </contour>
    <contour>
      <point x="124" y="516" type="curve" smooth="yes"/>
      <point x="153" y="516"/>
      <point x="175" y="538"/>
      <point x="175" y="566" type="curve" smooth="yes"/>
      <point x="175" y="595"/>
      <point x="153" y="617"/>
      <point x="124" y="617" type="curve" smooth="yes"/>
      <point x="96" y="617"/>
      <point x="74" y="595"/>
      <point x="74" y="566" type="curve" smooth="yes"/>
      <point x="74" y="538"/>
      <point x="96" y="516"/>
    </contour>
  </outline>
</glyph>
<glyph name="j" format="1">
  <advance width="226"/>
  <unicode hex="006A"/>
  <outline>
    <contour>
      <point x="7" y="-287" type="curve" smooth="yes"/>
      <point x="41" y="-287"/>
      <point x="104" y="-220"/>
      <point x="129" y="-152" type="curve" smooth="yes"/>
      <point x="158" y="-72"/>
      <point x="159" y="29"/>
      <point x="159" y="91" type="curve" smooth="yes"/>
      <point x="159" y="275" type="line" smooth="yes"/>
      <point x="159" y="320"/>
      <point x="167" y="388"/>
      <point x="169" y="414" type="curve" smooth="yes"/>
      <point x="171" y="431"/>
      <point x="162" y="434"/>
      <point x="156" y="434" type="curve" smooth="yes"/>
      <point x="154" y="434"/>
      <point x="145" y="430"/>
      <point x="139" y="425" type="curve" smooth="yes"/>
      <point x="121" y="410"/>
      <point x="95" y="384"/>
      <point x="45" y="372" type="curve" smooth="yes"/>
      <point x="39" y="370"/>
      <point x="35" y="362"/>
      <point x="35" y="356" type="curve" smooth="yes"/>
      <point x="35" y="350"/>
      <point x="38" y="340"/>
      <point x="50" y="338" type="curve" smooth="yes"/>
      <point x="80" y="331"/>
      <point x="89" y="301"/>
      <point x="89" y="266" type="curve" smooth="yes"/>
      <point x="89" y="69" type="line" smooth="yes"/>
      <point x="89" y="0"/>
      <point x="86" y="-136"/>
      <point x="57" y="-197" type="curve" smooth="yes"/>
      <point x="38" y="-237"/>
      <point x="15" y="-221"/>
      <point x="1" y="-225" type="curve" smooth="yes"/>
      <point x="-18" y="-231"/>
      <point x="-24" y="-247"/>
      <point x="-24" y="-261" type="curve" smooth="yes"/>
      <point x="-24" y="-274"/>
      <point x="-12" y="-287"/>
    </contour>
    <contour>
      <point x="116" y="516" type="curve" smooth="yes"/>
      <point x="145" y="516"/>
      <point x="167" y="538"/>
      <point x="167" y="566" type="curve" smooth="yes"/>
      <point x="167" y="595"/>
      <point x="145" y="617"/>
      <point x="116" y="617" type="curve" smooth="yes"/>
      <point x="88" y="617"/>
      <point x="66" y="595"/>
      <point x="66" y="566" type="curve" smooth="yes"/>
      <point x="66" y="538"/>
      <point x="88" y="516"/>
    </contour>
  </outline>
</glyph>
<glyph name="k" format="1">
  <advance width="469"/>
  <unicode hex="006B"/>
  <outline>
    <contour>
      <point x="42" y="-3" type="curve" smooth="yes"/>
      <point x="81" y="-3"/>
      <point x="85" y="2"/>
      <point x="120" y="2" type="curve" smooth="yes"/>
      <point x="155" y="2"/>
      <point x="151" y="-3"/>
      <point x="190" y="-3" type="curve" smooth="yes"/>
      <point x="195" y="-3"/>
      <point x="213" y="-2"/>
      <point x="213" y="8" type="curve" smooth="yes"/>
      <point x="213" y="23"/>
      <point x="201" y="27"/>
      <point x="190" y="33" type="curve" smooth="yes"/>
      <point x="170" y="42"/>
      <point x="155" y="55"/>
      <point x="155" y="96" type="curve" smooth="yes"/>
      <point x="155" y="99"/>
      <point x="154" y="121"/>
      <point x="154" y="135" type="curve" smooth="yes"/>
      <point x="154" y="158"/>
      <point x="154" y="180"/>
      <point x="155" y="199" type="curve"/>
      <point x="155" y="204"/>
      <point x="157" y="206"/>
      <point x="160" y="206" type="curve" smooth="yes"/>
      <point x="164" y="206"/>
      <point x="166" y="204"/>
      <point x="170" y="199" type="curve" smooth="yes"/>
      <point x="269" y="87" type="line" smooth="yes"/>
      <point x="281" y="73"/>
      <point x="285" y="63"/>
      <point x="285" y="54" type="curve" smooth="yes"/>
      <point x="285" y="44"/>
      <point x="277" y="37"/>
      <point x="268" y="30" type="curve" smooth="yes"/>
      <point x="253" y="19"/>
      <point x="254" y="17"/>
      <point x="254" y="9" type="curve" smooth="yes"/>
      <point x="254" y="4"/>
      <point x="258" y="0"/>
      <point x="272" y="0" type="curve" smooth="yes"/>
      <point x="340" y="0"/>
      <point x="407" y="-3"/>
      <point x="459" y="-3" type="curve" smooth="yes"/>
      <point x="471" y="-3"/>
      <point x="479" y="2"/>
      <point x="479" y="11" type="curve" smooth="yes"/>
      <point x="479" y="21"/>
      <point x="458" y="30"/>
      <point x="444" y="37" type="curve" smooth="yes"/>
      <point x="424" y="47"/>
      <point x="368" y="82"/>
      <point x="346" y="103" type="curve" smooth="yes"/>
      <point x="325" y="122"/>
      <point x="278" y="166"/>
      <point x="227" y="230" type="curve" smooth="yes"/>
      <point x="225" y="232"/>
      <point x="224" y="235"/>
      <point x="224" y="237" type="curve" smooth="yes"/>
      <point x="224" y="240"/>
      <point x="226" y="243"/>
      <point x="230" y="247" type="curve" smooth="yes"/>
      <point x="278" y="289"/>
      <point x="345" y="345"/>
      <point x="358" y="353" type="curve" smooth="yes"/>
      <point x="376" y="364"/>
      <point x="399" y="377"/>
      <point x="424" y="384" type="curve" smooth="yes"/>
      <point x="438" y="388"/>
      <point x="449" y="394"/>
      <point x="449" y="402" type="curve" smooth="yes"/>
      <point x="449" y="408"/>
      <point x="444" y="412"/>
      <point x="435" y="412" type="curve" smooth="yes"/>
      <point x="416" y="412"/>
      <point x="375" y="400"/>
      <point x="344" y="400" type="curve" smooth="yes"/>
      <point x="295" y="400" type="line" smooth="yes"/>
      <point x="281" y="400"/>
      <point x="273" y="395"/>
      <point x="273" y="388" type="curve" smooth="yes"/>
      <point x="273" y="382"/>
      <point x="276" y="380"/>
      <point x="285" y="378" type="curve" smooth="yes"/>
      <point x="297" y="375"/>
      <point x="311" y="370"/>
      <point x="311" y="363" type="curve" smooth="yes"/>
      <point x="311" y="360"/>
      <point x="309" y="356"/>
      <point x="302" y="348" type="curve" smooth="yes"/>
      <point x="289" y="333"/>
      <point x="250" y="292"/>
      <point x="196" y="245" type="curve" smooth="yes"/>
      <point x="181" y="232"/>
      <point x="168" y="225"/>
      <point x="160" y="225" type="curve" smooth="yes"/>
      <point x="157" y="225"/>
      <point x="155" y="228"/>
      <point x="155" y="234" type="curve" smooth="yes"/>
      <point x="155" y="562" type="line" smooth="yes"/>
      <point x="155" y="647"/>
      <point x="164" y="682"/>
      <point x="164" y="696" type="curve" smooth="yes"/>
      <point x="164" y="702"/>
      <point x="162" y="705"/>
      <point x="158" y="705" type="curve" smooth="yes"/>
      <point x="155" y="705"/>
      <point x="153" y="704"/>
      <point x="149" y="702" type="curve" smooth="yes"/>
      <point x="119" y="689"/>
      <point x="90" y="676"/>
      <point x="39" y="654" type="curve" smooth="yes"/>
      <point x="34" y="652"/>
      <point x="31" y="648"/>
      <point x="31" y="642" type="curve" smooth="yes"/>
      <point x="31" y="633"/>
      <point x="34" y="628"/>
      <point x="40" y="625" type="curve" smooth="yes"/>
      <point x="73" y="607"/>
      <point x="85" y="574"/>
      <point x="85" y="491" type="curve" smooth="yes"/>
      <point x="85" y="96" type="line" smooth="yes"/>
      <point x="85" y="58"/>
      <point x="62" y="37"/>
      <point x="42" y="28" type="curve" smooth="yes"/>
      <point x="31" y="23"/>
      <point x="19" y="18"/>
      <point x="19" y="8" type="curve" smooth="yes"/>
      <point x="19" y="0"/>
      <point x="27" y="-3"/>
    </contour>
  </outline>
</glyph>
<glyph name="l" format="1">
  <advance width="240"/>
  <unicode hex="006C"/>
  <outline>
    <contour>
      <point x="39" y="-3" type="curve" smooth="yes"/>
      <point x="78" y="-3"/>
      <point x="85" y="2"/>
      <point x="120" y="2" type="curve" smooth="yes"/>
      <point x="155" y="2"/>
      <point x="162" y="-3"/>
      <point x="201" y="-3" type="curve" smooth="yes"/>
      <point x="208" y="-3"/>
      <point x="221" y="-2"/>
      <point x="221" y="8" type="curve" smooth="yes"/>
      <point x="221" y="20"/>
      <point x="209" y="25"/>
      <point x="198" y="30" type="curve" smooth="yes"/>
      <point x="178" y="40"/>
      <point x="155" y="49"/>
      <point x="155" y="96" type="curve" smooth="yes"/>
      <point x="155" y="562" type="line" smooth="yes"/>
      <point x="155" y="652"/>
      <point x="162" y="681"/>
      <point x="162" y="693" type="curve" smooth="yes"/>
      <point x="162" y="698"/>
      <point x="160" y="705"/>
      <point x="151" y="705" type="curve" smooth="yes"/>
      <point x="143" y="705"/>
      <point x="136" y="702"/>
      <point x="131" y="700" type="curve" smooth="yes"/>
      <point x="107" y="688"/>
      <point x="95" y="682"/>
      <point x="52" y="671" type="curve" smooth="yes"/>
      <point x="36" y="667"/>
      <point x="31" y="662"/>
      <point x="31" y="650" type="curve" smooth="yes"/>
      <point x="31" y="641"/>
      <point x="34" y="638"/>
      <point x="50" y="631" type="curve" smooth="yes"/>
      <point x="72" y="621"/>
      <point x="85" y="582"/>
      <point x="85" y="523" type="curve" smooth="yes"/>
      <point x="85" y="96" type="line" smooth="yes"/>
      <point x="85" y="49"/>
      <point x="62" y="40"/>
      <point x="42" y="30" type="curve" smooth="yes"/>
      <point x="31" y="25"/>
      <point x="19" y="20"/>
      <point x="19" y="8" type="curve" smooth="yes"/>
      <point x="19" y="-2"/>
      <point x="32" y="-3"/>
    </contour>
  </outline>
</glyph>
<glyph name="n" format="1">
  <advance width="528"/>
  <unicode hex="006E"/>
  <outline>
    <contour>
      <point x="44" y="-3" type="curve" smooth="yes"/>
      <point x="84" y="-3"/>
      <point x="90" y="2"/>
      <point x="125" y="2" type="curve" smooth="yes"/>
      <point x="160" y="2"/>
      <point x="166" y="-3"/>
      <point x="206" y="-3" type="curve" smooth="yes"/>
      <point x="219" y="-3"/>
      <point x="226" y="0"/>
      <point x="226" y="8" type="curve" smooth="yes"/>
      <point x="226" y="16"/>
      <point x="217" y="18"/>
      <point x="203" y="27" type="curve" smooth="yes"/>
      <point x="183" y="40"/>
      <point x="160" y="47"/>
      <point x="160" y="104" type="curve" smooth="yes"/>
      <point x="160" y="303" type="line" smooth="yes"/>
      <point x="160" y="311"/>
      <point x="163" y="321"/>
      <point x="168" y="326" type="curve" smooth="yes"/>
      <point x="196" y="349"/>
      <point x="231" y="366"/>
      <point x="279" y="366" type="curve" smooth="yes"/>
      <point x="333" y="365"/>
      <point x="369" y="330"/>
      <point x="369" y="272" type="curve" smooth="yes"/>
      <point x="369" y="104" type="line" smooth="yes"/>
      <point x="369" y="50"/>
      <point x="346" y="40"/>
      <point x="326" y="28" type="curve" smooth="yes"/>
      <point x="315" y="20"/>
      <point x="303" y="16"/>
      <point x="303" y="6" type="curve" smooth="yes"/>
      <point x="303" y="-2"/>
      <point x="316" y="-3"/>
      <point x="323" y="-3" type="curve" smooth="yes"/>
      <point x="363" y="-3"/>
      <point x="370" y="2"/>
      <point x="405" y="2" type="curve" smooth="yes"/>
      <point x="440" y="2"/>
      <point x="445" y="-3"/>
      <point x="485" y="-3" type="curve" smooth="yes"/>
      <point x="493" y="-3"/>
      <point x="505" y="-2"/>
      <point x="505" y="6" type="curve" smooth="yes"/>
      <point x="505" y="16"/>
      <point x="493" y="21"/>
      <point x="482" y="27" type="curve" smooth="yes"/>
      <point x="460" y="39"/>
      <point x="439" y="49"/>
      <point x="439" y="104" type="curve" smooth="yes"/>
      <point x="439" y="275" type="line" smooth="yes"/>
      <point x="439" y="353"/>
      <point x="391" y="414"/>
      <point x="326" y="414" type="curve" smooth="yes"/>
      <point x="263" y="414"/>
      <point x="212" y="392"/>
      <point x="165" y="347" type="curve"/>
      <point x="164" y="348"/>
      <point x="163" y="353"/>
      <point x="163" y="359" type="curve" smooth="yes"/>
      <point x="163" y="378"/>
      <point x="168" y="414"/>
      <point x="168" y="423" type="curve" smooth="yes"/>
      <point x="168" y="427"/>
      <point x="166" y="430"/>
      <point x="163" y="430" type="curve" smooth="yes"/>
      <point x="159" y="430"/>
      <point x="156" y="428"/>
      <point x="152" y="425" type="curve" smooth="yes"/>
      <point x="124" y="404"/>
      <point x="99" y="390"/>
      <point x="52" y="370" type="curve" smooth="yes"/>
      <point x="46" y="368"/>
      <point x="43" y="359"/>
      <point x="43" y="352" type="curve" smooth="yes"/>
      <point x="43" y="344"/>
      <point x="47" y="341"/>
      <point x="53" y="338" type="curve" smooth="yes"/>
      <point x="86" y="321"/>
      <point x="90" y="282"/>
      <point x="90" y="226" type="curve" smooth="yes"/>
      <point x="90" y="104" type="line" smooth="yes"/>
      <point x="90" y="47"/>
      <point x="67" y="41"/>
      <point x="47" y="28" type="curve" smooth="yes"/>
      <point x="34" y="20"/>
      <point x="24" y="18"/>
      <point x="24" y="8" type="curve" smooth="yes"/>
      <point x="24" y="0"/>
      <point x="32" y="-3"/>
    </contour>
  </outline>
</glyph>
<glyph name="q" format="1">
  <advance width="522"/>
  <unicode hex="0071"/>
  <outline>
    <contour>
      <point x="331" y="-285" type="curve" smooth="yes"/>
      <point x="371" y="-285"/>
      <point x="377" y="-280"/>
      <point x="412" y="-280" type="curve" smooth="yes"/>
      <point x="448" y="-280"/>
      <point x="462" y="-285"/>
      <point x="502" y="-285" type="curve" smooth="yes"/>
      <point x="510" y="-285"/>
      <point x="522" y="-284"/>
      <point x="522" y="-273" type="curve" smooth="yes"/>
      <point x="522" y="-263"/>
      <point x="507" y="-254"/>
      <point x="492" y="-247" type="curve" smooth="yes"/>
      <point x="459" y="-230"/>
      <point x="447" y="-220"/>
      <point x="447" y="-188" type="curve" smooth="yes"/>
      <point x="447" y="295" type="line" smooth="yes"/>
      <point x="447" y="352"/>
      <point x="459" y="398"/>
      <point x="459" y="411" type="curve" smooth="yes"/>
      <point x="459" y="416"/>
      <point x="441" y="421"/>
      <point x="431" y="421" type="curve" smooth="yes"/>
      <point x="426" y="421"/>
      <point x="422" y="418"/>
      <point x="421" y="417" type="curve" smooth="yes"/>
      <point x="411" y="402"/>
      <point x="402" y="392"/>
      <point x="385" y="392" type="curve" smooth="yes"/>
      <point x="371" y="392"/>
      <point x="335" y="414"/>
      <point x="282" y="414" type="curve" smooth="yes"/>
      <point x="135" y="414"/>
      <point x="35" y="319"/>
      <point x="35" y="178" type="curve" smooth="yes"/>
      <point x="35" y="54"/>
      <point x="131" y="-14"/>
      <point x="235" y="-14" type="curve" smooth="yes"/>
      <point x="288" y="-14"/>
      <point x="345" y="26"/>
      <point x="362" y="41" type="curve" smooth="yes"/>
      <point x="365" y="44"/>
      <point x="368" y="43"/>
      <point x="371" y="43" type="curve" smooth="yes"/>
      <point x="375" y="43"/>
      <point x="377" y="36"/>
      <point x="377" y="13" type="curve" smooth="yes"/>
      <point x="377" y="-188" type="line" smooth="yes"/>
      <point x="377" y="-221"/>
      <point x="369" y="-231"/>
      <point x="336" y="-246" type="curve" smooth="yes"/>
      <point x="325" y="-251"/>
      <point x="311" y="-259"/>
      <point x="311" y="-273" type="curve" smooth="yes"/>
      <point x="311" y="-284"/>
      <point x="324" y="-285"/>
    </contour>
    <contour>
      <point x="272" y="39" type="curve" smooth="yes"/>
      <point x="212" y="39"/>
      <point x="117" y="72"/>
      <point x="117" y="205" type="curve" smooth="yes"/>
      <point x="117" y="320"/>
      <point x="185" y="382"/>
      <point x="257" y="382" type="curve" smooth="yes"/>
      <point x="323" y="382"/>
      <point x="375" y="335"/>
      <point x="377" y="275" type="curve" smooth="yes"/>
      <point x="378" y="250"/>
      <point x="378" y="116"/>
      <point x="378" y="80" type="curve"/>
      <point x="361" y="61"/>
      <point x="316" y="39"/>
    </contour>
  </outline>
</glyph>
<glyph name="v" format="1">
  <advance width="438"/>
  <unicode hex="0076"/>
  <outline>
    <contour>
      <point x="214" y="-21" type="curve"/>
      <point x="220" y="-21" type="line"/>
      <point x="338" y="263" type="line" smooth="yes"/>
      <point x="368" y="335"/>
      <point x="395" y="360"/>
      <point x="422" y="371" type="curve" smooth="yes"/>
      <point x="438" y="378"/>
      <point x="448" y="385"/>
      <point x="448" y="394" type="curve" smooth="yes"/>
      <point x="448" y="402"/>
      <point x="433" y="405"/>
      <point x="423" y="405" type="curve" smooth="yes"/>
      <point x="404" y="405"/>
      <point x="399" y="400"/>
      <point x="364" y="400" type="curve" smooth="yes"/>
      <point x="329" y="400"/>
      <point x="306" y="405"/>
      <point x="291" y="405" type="curve" smooth="yes"/>
      <point x="282" y="405"/>
      <point x="266" y="404"/>
      <point x="266" y="396" type="curve" smooth="yes"/>
      <point x="266" y="387"/>
      <point x="273" y="381"/>
      <point x="287" y="373" type="curve" smooth="yes"/>
      <point x="303" y="364"/>
      <point x="312" y="347"/>
      <point x="312" y="321" type="curve" smooth="yes"/>
      <point x="312" y="305"/>
      <point x="308" y="286"/>
      <point x="300" y="263" type="curve" smooth="yes"/>
      <point x="236" y="100" type="line"/>
      <point x="235" y="99"/>
      <point x="234" y="99"/>
      <point x="233" y="100" type="curve"/>
      <point x="163" y="290" type="line" smooth="yes"/>
      <point x="156" y="309"/>
      <point x="152" y="324"/>
      <point x="152" y="336" type="curve" smooth="yes"/>
      <point x="152" y="357"/>
      <point x="161" y="368"/>
      <point x="174" y="374" type="curve" smooth="yes"/>
      <point x="186" y="380"/>
      <point x="198" y="386"/>
      <point x="198" y="396" type="curve" smooth="yes"/>
      <point x="198" y="404"/>
      <point x="180" y="405"/>
      <point x="173" y="405" type="curve" smooth="yes"/>
      <point x="134" y="405"/>
      <point x="133" y="400"/>
      <point x="98" y="400" type="curve" smooth="yes"/>
      <point x="63" y="400"/>
      <point x="64" y="405"/>
      <point x="25" y="405" type="curve" smooth="yes"/>
      <point x="18" y="405"/>
      <point x="5" y="404"/>
      <point x="5" y="396" type="curve" smooth="yes"/>
      <point x="5" y="387"/>
      <point x="14" y="377"/>
      <point x="30" y="370" type="curve" smooth="yes"/>
      <point x="50" y="360"/>
      <point x="64" y="353"/>
      <point x="93" y="280" type="curve" smooth="yes"/>
      <point x="106" y="247"/>
      <point x="141" y="170"/>
      <point x="171" y="87" type="curve" smooth="yes"/>
      <point x="179" y="65"/>
      <point x="187" y="39"/>
      <point x="196" y="17" type="curve" smooth="yes"/>
      <point x="199" y="8"/>
      <point x="208" y="-12"/>
    </contour>
  </outline>
</glyph>
<glyph name="w" format="1">
  <advance width="685"/>
  <unicode hex="0077"/>
  <outline>
    <contour>
      <point x="226" y="-23" type="curve" smooth="yes"/>
      <point x="229" y="-23"/>
      <point x="232" y="-20"/>
      <point x="234" y="-16" type="curve"/>
      <point x="343" y="241" type="line" smooth="yes"/>
      <point x="346" y="248"/>
      <point x="348" y="251"/>
      <point x="350" y="251" type="curve" smooth="yes"/>
      <point x="352" y="250"/>
      <point x="354" y="247"/>
      <point x="356" y="242" type="curve" smooth="yes"/>
      <point x="460" y="-16" type="line"/>
      <point x="462" y="-20"/>
      <point x="465" y="-23"/>
      <point x="468" y="-23" type="curve" smooth="yes"/>
      <point x="472" y="-23"/>
      <point x="475" y="-20"/>
      <point x="477" y="-16" type="curve"/>
      <point x="608" y="298" type="line" smooth="yes"/>
      <point x="621" y="328"/>
      <point x="647" y="361"/>
      <point x="667" y="368" type="curve" smooth="yes"/>
      <point x="679" y="372"/>
      <point x="690" y="379"/>
      <point x="690" y="393" type="curve" smooth="yes"/>
      <point x="690" y="404"/>
      <point x="678" y="405"/>
      <point x="670" y="405" type="curve" smooth="yes"/>
      <point x="648" y="405"/>
      <point x="649" y="400"/>
      <point x="612" y="400" type="curve" smooth="yes"/>
      <point x="576" y="400"/>
      <point x="566" y="405"/>
      <point x="537" y="405" type="curve" smooth="yes"/>
      <point x="530" y="405"/>
      <point x="517" y="404"/>
      <point x="517" y="393" type="curve" smooth="yes"/>
      <point x="517" y="379"/>
      <point x="529" y="372"/>
      <point x="540" y="368" type="curve" smooth="yes"/>
      <point x="561" y="360"/>
      <point x="570" y="344"/>
      <point x="571" y="325" type="curve" smooth="yes"/>
      <point x="572" y="312"/>
      <point x="569" y="297"/>
      <point x="563" y="284" type="curve" smooth="yes"/>
      <point x="492" y="118" type="line" smooth="yes"/>
      <point x="489" y="111"/>
      <point x="487" y="108"/>
      <point x="484" y="108" type="curve" smooth="yes"/>
      <point x="482" y="108"/>
      <point x="479" y="112"/>
      <point x="476" y="119" type="curve" smooth="yes"/>
      <point x="408" y="295" type="line" smooth="yes"/>
      <point x="402" y="310"/>
      <point x="399" y="323"/>
      <point x="399" y="333" type="curve" smooth="yes"/>
      <point x="400" y="349"/>
      <point x="408" y="360"/>
      <point x="428" y="368" type="curve" smooth="yes"/>
      <point x="440" y="373"/>
      <point x="451" y="379"/>
      <point x="451" y="393" type="curve" smooth="yes"/>
      <point x="451" y="404"/>
      <point x="438" y="405"/>
      <point x="431" y="405" type="curve" smooth="yes"/>
      <point x="409" y="405"/>
      <point x="384" y="400"/>
      <point x="347" y="400" type="curve" smooth="yes"/>
      <point x="310" y="400"/>
      <point x="290" y="405"/>
      <point x="272" y="405" type="curve" smooth="yes"/>
      <point x="264" y="405"/>
      <point x="252" y="404"/>
      <point x="252" y="393" type="curve" smooth="yes"/>
      <point x="252" y="379"/>
      <point x="263" y="372"/>
      <point x="275" y="368" type="curve" smooth="yes"/>
      <point x="308" y="356"/>
      <point x="322" y="334"/>
      <point x="322" y="306" type="curve" smooth="yes"/>
      <point x="322" y="292"/>
      <point x="319" y="276"/>
      <point x="312" y="260" type="curve" smooth="yes"/>
      <point x="250" y="111" type="line" smooth="yes"/>
      <point x="249" y="108"/>
      <point x="247" y="107"/>
      <point x="245" y="107" type="curve" smooth="yes"/>
      <point x="243" y="107"/>
      <point x="241" y="108"/>
      <point x="240" y="111" type="curve" smooth="yes"/>
      <point x="162" y="312" type="line" smooth="yes"/>
      <point x="159" y="320"/>
      <point x="157" y="328"/>
      <point x="157" y="336" type="curve" smooth="yes"/>
      <point x="157" y="351"/>
      <point x="164" y="363"/>
      <point x="178" y="368" type="curve" smooth="yes"/>
      <point x="190" y="372"/>
      <point x="201" y="379"/>
      <point x="201" y="393" type="curve" smooth="yes"/>
      <point x="201" y="404"/>
      <point x="186" y="405"/>
      <point x="181" y="405" type="curve" smooth="yes"/>
      <point x="153" y="405"/>
      <point x="126" y="400"/>
      <point x="98" y="400" type="curve" smooth="yes"/>
      <point x="72" y="400"/>
      <point x="50" y="405"/>
      <point x="25" y="405" type="curve" smooth="yes"/>
      <point x="18" y="405"/>
      <point x="5" y="404"/>
      <point x="5" y="393" type="curve" smooth="yes"/>
      <point x="5" y="379"/>
      <point x="17" y="373"/>
      <point x="28" y="368" type="curve" smooth="yes"/>
      <point x="57" y="355"/>
      <point x="77" y="337"/>
      <point x="87" y="312" type="curve" smooth="yes"/>
      <point x="219" y="-16" type="line"/>
      <point x="220" y="-20"/>
      <point x="223" y="-23"/>
    </contour>
  </outline>
</glyph>
<glyph name="x" format="1">
  <advance width="430"/>
  <unicode hex="0078"/>
  <outline>
    <contour>
      <point x="30" y="-4" type="curve" smooth="yes"/>
      <point x="48" y="-4"/>
      <point x="60" y="1"/>
      <point x="97" y="1" type="curve" smooth="yes"/>
      <point x="113" y="1"/>
      <point x="139" y="-1"/>
      <point x="150" y="-1" type="curve" smooth="yes"/>
      <point x="155" y="-1"/>
      <point x="174" y="1"/>
      <point x="174" y="12" type="curve" smooth="yes"/>
      <point x="174" y="26"/>
      <point x="166" y="30"/>
      <point x="155" y="35" type="curve" smooth="yes"/>
      <point x="147" y="39"/>
      <point x="143" y="44"/>
      <point x="143" y="53" type="curve" smooth="yes"/>
      <point x="143" y="64"/>
      <point x="151" y="80"/>
      <point x="167" y="105" type="curve" smooth="yes"/>
      <point x="207" y="166" type="line" smooth="yes"/>
      <point x="208" y="167"/>
      <point x="212" y="167"/>
      <point x="213" y="166" type="curve" smooth="yes"/>
      <point x="265" y="82" type="line" smooth="yes"/>
      <point x="268" y="74"/>
      <point x="270" y="67"/>
      <point x="270" y="61" type="curve" smooth="yes"/>
      <point x="270" y="45"/>
      <point x="258" y="38"/>
      <point x="246" y="33" type="curve" smooth="yes"/>
      <point x="233" y="28"/>
      <point x="225" y="24"/>
      <point x="225" y="10" type="curve" smooth="yes"/>
      <point x="225" y="4"/>
      <point x="230" y="-2"/>
      <point x="244" y="-2" type="curve" smooth="yes"/>
      <point x="267" y="-2"/>
      <point x="297" y="0"/>
      <point x="321" y="0" type="curve" smooth="yes"/>
      <point x="371" y="0"/>
      <point x="364" y="-4"/>
      <point x="402" y="-4" type="curve" smooth="yes"/>
      <point x="411" y="-4"/>
      <point x="425" y="-3"/>
      <point x="425" y="7" type="curve" smooth="yes"/>
      <point x="425" y="21"/>
      <point x="411" y="26"/>
      <point x="398" y="30" type="curve" smooth="yes"/>
      <point x="375" y="38"/>
      <point x="361" y="51"/>
      <point x="341" y="84" type="curve" smooth="yes"/>
      <point x="256" y="223" type="line" smooth="yes"/>
      <point x="253" y="228"/>
      <point x="253" y="233"/>
      <point x="255" y="236" type="curve" smooth="yes"/>
      <point x="299" y="301" type="line" smooth="yes"/>
      <point x="329" y="347"/>
      <point x="366" y="363"/>
      <point x="389" y="370" type="curve" smooth="yes"/>
      <point x="400" y="375"/>
      <point x="412" y="380"/>
      <point x="412" y="393" type="curve" smooth="yes"/>
      <point x="412" y="404"/>
      <point x="400" y="405"/>
      <point x="392" y="405" type="curve" smooth="yes"/>
      <point x="375" y="405"/>
      <point x="366" y="398"/>
      <point x="329" y="398" type="curve" smooth="yes"/>
      <point x="313" y="398"/>
      <point x="289" y="402"/>
      <point x="279" y="402" type="curve" smooth="yes"/>
      <point x="274" y="402"/>
      <point x="256" y="404"/>
      <point x="256" y="391" type="curve" smooth="yes"/>
      <point x="256" y="378"/>
      <point x="263" y="372"/>
      <point x="271" y="366" type="curve" smooth="yes"/>
      <point x="279" y="360"/>
      <point x="282" y="356"/>
      <point x="281" y="347" type="curve" smooth="yes"/>
      <point x="280" y="338"/>
      <point x="278" y="329"/>
      <point x="268" y="314" type="curve" smooth="yes"/>
      <point x="233" y="261" type="line" smooth="yes"/>
      <point x="230" y="257"/>
      <point x="227" y="256"/>
      <point x="224" y="261" type="curve" smooth="yes"/>
      <point x="191" y="311" type="line" smooth="yes"/>
      <point x="180" y="327"/>
      <point x="175" y="340"/>
      <point x="175" y="349" type="curve" smooth="yes"/>
      <point x="174" y="359"/>
      <point x="178" y="366"/>
      <point x="186" y="370" type="curve" smooth="yes"/>
      <point x="195" y="374"/>
      <point x="204" y="378"/>
      <point x="204" y="389" type="curve" smooth="yes"/>
      <point x="204" y="402"/>
      <point x="186" y="401"/>
      <point x="181" y="401" type="curve" smooth="yes"/>
      <point x="158" y="401"/>
      <point x="154" y="398"/>
      <point x="130" y="398" type="curve" smooth="yes"/>
      <point x="81" y="398"/>
      <point x="90" y="404"/>
      <point x="51" y="404" type="curve" smooth="yes"/>
      <point x="46" y="404"/>
      <point x="28" y="405"/>
      <point x="28" y="392" type="curve" smooth="yes"/>
      <point x="28" y="377"/>
      <point x="42" y="371"/>
      <point x="56" y="367" type="curve" smooth="yes"/>
      <point x="80" y="359"/>
      <point x="90" y="345"/>
      <point x="112" y="311" type="curve" smooth="yes"/>
      <point x="179" y="210" type="line" smooth="yes"/>
      <point x="184" y="202"/>
      <point x="186" y="198"/>
      <point x="177" y="187" type="curve"/>
      <point x="123" y="109" type="line" smooth="yes"/>
      <point x="92" y="64"/>
      <point x="57" y="45"/>
      <point x="33" y="30" type="curve" smooth="yes"/>
      <point x="23" y="24"/>
      <point x="10" y="20"/>
      <point x="10" y="5" type="curve" smooth="yes"/>
      <point x="10" y="-3"/>
      <point x="22" y="-4"/>
    </contour>
  </outline>
</glyph>
<glyph name="y" format="1">
  <advance width="438"/>
  <unicode hex="0079"/>
  <outline>
    <contour>
      <point x="47" y="-285" type="curve" smooth="yes"/>
      <point x="88" y="-285"/>
      <point x="122" y="-264"/>
      <point x="139" y="-224" type="curve"/>
      <point x="338" y="263" type="line"/>
      <point x="368" y="335"/>
      <point x="395" y="360"/>
      <point x="422" y="371" type="curve" smooth="yes"/>
      <point x="438" y="378"/>
      <point x="448" y="385"/>
      <point x="448" y="394" type="curve" smooth="yes"/>
      <point x="448" y="402"/>
      <point x="433" y="405"/>
      <point x="423" y="405" type="curve" smooth="yes"/>
      <point x="404" y="405"/>
      <point x="399" y="400"/>
      <point x="364" y="400" type="curve" smooth="yes"/>
      <point x="329" y="400"/>
      <point x="306" y="405"/>
      <point x="291" y="405" type="curve" smooth="yes"/>
      <point x="282" y="405"/>
      <point x="266" y="404"/>
      <point x="266" y="396" type="curve" smooth="yes"/>
      <point x="266" y="387"/>
      <point x="273" y="381"/>
      <point x="287" y="373" type="curve" smooth="yes"/>
      <point x="303" y="364"/>
      <point x="312" y="347"/>
      <point x="312" y="321" type="curve" smooth="yes"/>
      <point x="312" y="305"/>
      <point x="308" y="286"/>
      <point x="300" y="263" type="curve" smooth="yes"/>
      <point x="245" y="112" type="line" smooth="yes"/>
      <point x="244" y="109"/>
      <point x="242" y="106"/>
      <point x="240" y="106" type="curve" smooth="yes"/>
      <point x="237" y="106"/>
      <point x="235" y="109"/>
      <point x="234" y="112" type="curve" smooth="yes"/>
      <point x="163" y="290" type="line" smooth="yes"/>
      <point x="156" y="309"/>
      <point x="152" y="324"/>
      <point x="152" y="336" type="curve" smooth="yes"/>
      <point x="152" y="357"/>
      <point x="161" y="368"/>
      <point x="174" y="374" type="curve" smooth="yes"/>
      <point x="186" y="380"/>
      <point x="198" y="386"/>
      <point x="198" y="396" type="curve" smooth="yes"/>
      <point x="198" y="404"/>
      <point x="180" y="405"/>
      <point x="173" y="405" type="curve" smooth="yes"/>
      <point x="134" y="405"/>
      <point x="133" y="400"/>
      <point x="98" y="400" type="curve" smooth="yes"/>
      <point x="63" y="400"/>
      <point x="64" y="405"/>
      <point x="25" y="405" type="curve" smooth="yes"/>
      <point x="18" y="405"/>
      <point x="5" y="404"/>
      <point x="5" y="396" type="curve" smooth="yes"/>
      <point x="5" y="387"/>
      <point x="14" y="377"/>
      <point x="30" y="370" type="curve" smooth="yes"/>
      <point x="50" y="360"/>
      <point x="64" y="353"/>
      <point x="93" y="280" type="curve" smooth="yes"/>
      <point x="189" y="36" type="line" smooth="yes"/>
      <point x="192" y="28"/>
      <point x="193" y="18"/>
      <point x="193" y="7" type="curve" smooth="yes"/>
      <point x="193" y="-2"/>
      <point x="192" y="-10"/>
      <point x="187" y="-21" type="curve" smooth="yes"/>
      <point x="124" y="-159" type="line"/>
      <point x="116" y="-172"/>
      <point x="105" y="-176"/>
      <point x="89" y="-176" type="curve" smooth="yes"/>
      <point x="68" y="-176"/>
      <point x="52" y="-169"/>
      <point x="25" y="-169" type="curve" smooth="yes"/>
      <point x="-4" y="-169"/>
      <point x="-15" y="-197"/>
      <point x="-15" y="-224" type="curve" smooth="yes"/>
      <point x="-15" y="-269"/>
      <point x="20" y="-285"/>
    </contour>
  </outline>
</glyph>
<glyph name="z" format="1">
  <advance width="377"/>
  <unicode hex="007A"/>
  <outline>
    <contour>
      <point x="39" y="-5" type="curve" smooth="yes"/>
      <point x="56" y="-5"/>
      <point x="91" y="0"/>
      <point x="119" y="0" type="curve" smooth="yes"/>
      <point x="228" y="0"/>
      <point x="299" y="-5"/>
      <point x="328" y="-5" type="curve" smooth="yes"/>
      <point x="336" y="-5"/>
      <point x="342" y="0"/>
      <point x="344" y="9" type="curve" smooth="yes"/>
      <point x="349" y="25"/>
      <point x="374" y="120"/>
      <point x="374" y="128" type="curve" smooth="yes"/>
      <point x="374" y="139"/>
      <point x="358" y="144"/>
      <point x="350" y="135" type="curve" smooth="yes"/>
      <point x="324" y="104"/>
      <point x="311" y="86"/>
      <point x="293" y="67" type="curve" smooth="yes"/>
      <point x="277" y="51"/>
      <point x="247" y="33"/>
      <point x="206" y="33" type="curve" smooth="yes"/>
      <point x="134" y="33" type="line" smooth="yes"/>
      <point x="125" y="33"/>
      <point x="119" y="38"/>
      <point x="125" y="48" type="curve" smooth="yes"/>
      <point x="320" y="343" type="line" smooth="yes"/>
      <point x="333" y="363"/>
      <point x="344" y="376"/>
      <point x="358" y="393" type="curve"/>
      <point x="361" y="397"/>
      <point x="356" y="405"/>
      <point x="351" y="405" type="curve" smooth="yes"/>
      <point x="290" y="403"/>
      <point x="234" y="402"/>
      <point x="165" y="402" type="curve" smooth="yes"/>
      <point x="156" y="402"/>
      <point x="142" y="401"/>
      <point x="127" y="401" type="curve" smooth="yes"/>
      <point x="109" y="401"/>
      <point x="90" y="402"/>
      <point x="84" y="407" type="curve" smooth="yes"/>
      <point x="78" y="412"/>
      <point x="72" y="416"/>
      <point x="69" y="416" type="curve" smooth="yes"/>
      <point x="65" y="416"/>
      <point x="54" y="408"/>
      <point x="54" y="398" type="curve" smooth="yes"/>
      <point x="54" y="373"/>
      <point x="41" y="322"/>
      <point x="35" y="304" type="curve" smooth="yes"/>
      <point x="29" y="287"/>
      <point x="49" y="279"/>
      <point x="62" y="292" type="curve" smooth="yes"/>
      <point x="81" y="311"/>
      <point x="99" y="337"/>
      <point x="121" y="352" type="curve" smooth="yes"/>
      <point x="133" y="360"/>
      <point x="157" y="372"/>
      <point x="185" y="371" type="curve" smooth="yes"/>
      <point x="244" y="369" type="line" smooth="yes"/>
      <point x="259" y="368"/>
      <point x="256" y="363"/>
      <point x="253" y="359" type="curve"/>
      <point x="180" y="243"/>
      <point x="129" y="166"/>
      <point x="62" y="70" type="curve" smooth="yes"/>
      <point x="48" y="51"/>
      <point x="25" y="17"/>
      <point x="25" y="12" type="curve" smooth="yes"/>
      <point x="25" y="7"/>
      <point x="34" y="-5"/>
    </contour>
  </outline>
</glyph>
